<svg xmlns="http://www.w3.org/2000/svg" width="130" height="130"><g fill="#2D2D2D"><path d="M54.827 57.611c0 4.563 2.895 9.375 9.344 10.083-1.255-1.053-2.167-2.029-2.848-3.042-2.697-1.302-4.306-3.93-4.306-7.041 0-3.21 1.9-6.846 6.147-7.732l.071-.017c.539-.155.879-.666.802-1.213-.076-.546-.536-.944-1.094-.944l-.235.023c-5.437 1.088-7.881 5.749-7.881 9.883zM69.891 53.444l-.079.152c-.734-.19-1.502-.288-2.279-.288-3.215 0-6.631 2.325-6.631 6.631 0 .473.045.944.136 1.402.044.222.095.424.161.647.073.25.148.458.233.666.318.772.771 1.504 1.384 2.241.949 1.136 2.162 2.119 3.224 2.93l.882.666.871.656c2.201 1.678 4.179 3.391 4.179 5.91 0 3.066-2.021 5.046-5.147 5.046l-.096-.005-.056-.004c-.164-.005-.33-.011-.499-.033-1.547-.197-3.142-1.052-4.268-2.285l-.101-.097c-.205-.172-.473-.271-.742-.271l-.157.011c-.368.054-.681.285-.837.616l-.066.198c-.088.353.013.724.281 1.043.297.315.63.625.984.916l.086.071c1.646 1.312 3.584 2.03 5.47 2.03.865 0 1.707-.127 2.503-.377 2.982-.944 4.835-3.598 4.835-6.928 0-.217-.011-.436-.034-.669l-.014-.103-.01-.075-.071-.457-.03-.143-.016-.07-.104-.396-.066-.215-.137-.371-.024-.06-.059-.142-.177-.372-.028-.061-.059-.112-.244-.418-.061-.103c-.11-.172-.228-.339-.349-.504l-.064-.082-.314-.396-.138-.156-.272-.302-.146-.151-.289-.293-.185-.176-.275-.256-.188-.168-.295-.254-.04-.034-.146-.122-.337-.276-.307-.242c-.471-.367-.944-.724-1.41-1.068-.899-.67-1.829-1.36-2.637-2.094l-.048-.04-.252-.238-.116-.113-.223-.223-.17-.181-.158-.175-.278-.331-.101-.135-.035-.046-.151-.209-.123-.184-.141-.226-.103-.18-.147-.291-.023-.048-.039-.079-.165-.424-.034-.11-.013-.045-.085-.307-.038-.176-.053-.32-.007-.051-.015-.115-.024-.473c-.002-2.536 1.877-4.43 4.369-4.43l.368.011c1.087.06 3.077.407 4.244 2.032l-.108.134.141-.091.101.133-.007.006c.512.771.781 1.626.781 2.482 0 2.529-1.8 4.42-4.838 5.115l.761.57c.465.345.947.704 1.428 1.083 3.565-1.441 4.84-4.435 4.84-6.769 0-1.367-.429-2.699-1.24-3.857l-.095-.143-.131-.168-.143-.178-.084-.096-.198-.217-.093-.09-.212-.203-.098-.083-.226-.192-.103-.076-.241-.179-.114-.074-.248-.163-.127-.073-.254-.144-.18-.088-.22-.108-.167-.071-.244-.105-.114-.04-.313-.113-.114-.034-.326-.097.002-.167z"/><polygon points="65.748,64.528 65.748,64.528 65.748,64.528"/></g></svg>