<svg xmlns="http://www.w3.org/2000/svg" width="220" height="140"><g fill="#C227B9"><path d="M77.791 18.772h9.192v23.6c0 .254.193.446.444.446.252 0 .444-.192.444-.446v-23.6h9.19c.252 0 .445-.193.445-.442s-.193-.442-.445-.442h-19.27c-.252 0-.442.193-.442.442s.19.442.442.442zM104.2 42.818c.252 0 .444-.192.444-.446v-11.577h16.246v11.577c0 .254.193.446.444.446.252 0 .442-.192.442-.446v-24.042c0-.25-.19-.442-.442-.442-.251 0-.444.193-.444.442v11.577h-16.246v-11.577c0-.25-.192-.442-.444-.442s-.444.193-.444.442v24.042c0 .253.192.446.444.446zM131.147 42.818h11.062c.252 0 .443-.192.443-.446 0-.25-.191-.442-.443-.442h-10.617v-11.135h8.385c.252 0 .444-.192.444-.442 0-.254-.192-.447-.444-.447h-8.385v-11.134h10.617c.252 0 .443-.193.443-.442s-.191-.442-.443-.442h-11.031c-.284 0-.475.193-.475.473v24.011c0 .253.193.446.444.446zM34.435 55.844c-.653 0-1.164.511-1.164 1.164v24.043c0 .652.511 1.163 1.164 1.163.652 0 1.164-.511 1.164-1.163v-24.044c0-.653-.512-1.163-1.164-1.163zM62.426 79.621l.06-.055c.225-.224.36-.549.36-.871v-8.489c0-.652-.511-1.163-1.164-1.163-.652 0-1.164.511-1.164 1.163v7.97c-.618.477-1.171.85-1.829 1.167-1.239.62-2.743.947-4.351.947-3.377 0-6.772-1.44-8.65-3.673-1.683-1.982-2.61-4.589-2.61-7.34 0-4.742 2.839-9.119 6.914-10.647 1.323-.51 2.724-.758 4.284-.758.251 0 .503.006.754.019 2.333.12 4.246.743 6.018 1.962l.053.034c.179.107.382.164.588.164.517 0 .976-.353 1.115-.859.135-.485-.055-.985-.472-1.259-2.108-1.455-4.454-2.229-7.171-2.367-.295-.015-.588-.021-.88-.021-1.846 0-3.524.291-5.141.893-5.019 1.938-8.392 7.097-8.392 12.839 0 3.276 1.119 6.411 3.152 8.832 2.355 2.78 6.354 4.509 10.437 4.509 1.96 0 3.819-.412 5.366-1.186.953-.461 1.767-1.002 2.723-1.811zM90.661 81.793c.115.115.419.421.901.421.653 0 1.164-.524 1.164-1.194v-24.013c0-.653-.511-1.164-1.164-1.164-.652 0-1.164.511-1.164 1.164v20.889l-18.299-21.603-.057-.062c-.106-.106-.388-.387-.898-.387-.652 0-1.164.511-1.164 1.164v24.043c0 .652.511 1.163 1.164 1.163.653 0 1.164-.511 1.164-1.163v-20.892l18.299 21.576.054.058zM115.555 72.269l3.748 9.21c.189.441.614.727 1.084.727.377 0 .732-.182.953-.486.217-.303.275-.693.158-1.049l-.023-.062-9.789-24.009c-.183-.455-.611-.749-1.091-.749-.481 0-.91.295-1.088.742l-9.847 23.968c-.159.371-.126.787.088 1.112.213.323.574.517.965.517.447 0 .852-.251 1.054-.656l.032-.068 3.771-9.196h9.985zm-4.968-12.191l3.995 9.863h-8.058l4.063-9.863zM143.17 57.007c0-.653-.512-1.164-1.163-1.164h-19.272c-.652 0-1.164.511-1.164 1.164 0 .652.512 1.164 1.164 1.164h8.473v22.88c0 .652.511 1.163 1.164 1.163.652 0 1.162-.511 1.162-1.163v-22.88h8.474c.65 0 1.162-.511 1.162-1.164zM158.637 82.555c6.617 0 10.892-4.969 10.892-12.658v-12.89c0-.653-.511-1.164-1.163-1.164s-1.164.511-1.164 1.164v12.92c0 6.354-3.281 10.301-8.564 10.301-6.598 0-8.938-5.566-8.938-10.332v-12.889c0-.653-.512-1.164-1.164-1.164s-1.164.511-1.164 1.164v12.92c-.001 7.672 4.421 12.628 11.265 12.628zM184.889 70.186c2.249-1.327 3.594-3.799 3.594-6.765 0-4.744-3.446-7.577-9.219-7.577h-2.943c-.652 0-1.164.511-1.164 1.164v24.043c0 .652.512 1.163 1.164 1.163s1.162-.511 1.162-1.163v-22.88h1.781c2.573 0 6.892.694 6.892 5.343 0 2.479-1.354 4.415-3.616 5.177-.385.128-.682.45-.773.84-.097.408.03.824.338 1.131l10.885 11.196c.225.225.521.349.836.349.474-.001.914-.294 1.096-.731.179-.432.078-.927-.248-1.252l-9.785-10.038zM211.647 79.887h-9.897v-9.694h7.666c.653 0 1.164-.511 1.164-1.164s-.511-1.164-1.164-1.164h-7.666v-9.694h9.897c.652 0 1.163-.511 1.163-1.164 0-.653-.511-1.164-1.163-1.164h-11.03c-.682 0-1.194.513-1.194 1.194v24.013c0 .652.511 1.163 1.163 1.163h11.062c.652 0 1.163-.511 1.163-1.163s-.511-1.163-1.164-1.163zM13.441 65.979c-2.681-1.274-3.924-3.832-3.924-6.377 0-2.899 1.716-6.184 5.551-6.985l.07-.018c.578-.165.938-.707.856-1.29-.081-.581-.57-1.002-1.162-1.002l-.231.022c-5.121 1.024-7.413 5.395-7.413 9.272 0 4.365 2.908 9.043 9.258 9.501-1.11-.893-2.196-1.909-3.005-3.123zM19.273 66.639l.972.73c.448.334.917.684 1.383 1.052 3.164-1.243 4.644-3.9 4.644-6.42 0-1.301-.4-2.548-1.171-3.648l-.092-.138-.087-.112-.169-.214-.08-.088-.188-.207-.087-.084-.2-.193-.093-.079-.214-.182-.096-.071-.229-.17-.105-.069-.237-.154-.118-.067-.242-.137-.122-.061-.252-.125-.121-.052-.268-.114-.107-.039-.294-.106-.107-.032-.308-.092-.073-.017c-.678-.176-1.399-.271-2.144-.271-3.041 0-6.272 2.198-6.272 6.271 0 .464.046.903.128 1.323l.003.025c.041.201.091.396.148.587l.01.038c.062.202.132.398.211.59v.002c.318.772.769 1.467 1.3 2.105.858 1.029 1.929 1.911 3 2.728l.815.615.018.013.786.592c2.041 1.555 3.794 3.115 3.794 5.333 0 2.734-1.805 4.503-4.597 4.503l-.133-.009-.447-.029c-1.371-.176-2.827-.945-3.844-2.062l-.1-.096c-.226-.188-.507-.292-.791-.292l-.167.012c-.384.057-.722.301-.888.654l-.073.211c-.089.362.003.756.291 1.1.294.312.606.6.929.865l.081.066.011.009c1.528 1.218 3.341 1.899 5.132 1.899.844 0 1.632-.129 2.356-.357 2.774-.876 4.568-3.318 4.568-6.537 0-.217-.012-.428-.032-.633l-.022-.168-.066-.434-.045-.201-.097-.374-.064-.202-.129-.352-.078-.19-.166-.351-.083-.164-.229-.393-.057-.096c-.104-.162-.213-.32-.328-.475l-.061-.076-.295-.371-.129-.147-.254-.283-.155-.162-.251-.252-.17-.163-.259-.239-.175-.158-.274-.235-.172-.146-.314-.255-.284-.225c-.434-.34-.873-.668-1.303-.988-.857-.637-1.694-1.263-2.422-1.922l-.043-.038-.23-.217-.106-.103-.202-.203-.118-.126-.18-.196-.251-.3-.123-.164-.137-.188-.111-.167-.125-.203-.093-.16-.131-.261-.056-.114-.147-.378-.042-.137-.076-.275-.034-.157-.047-.286-.019-.148-.022-.422-.001-.015c0-2.238 1.668-3.919 3.88-3.919l.333.01c.898.051 2.744.341 3.798 1.811l.01.013.004.007.004.006.013.017-.001.001c.507.717.777 1.52.777 2.326-.004 2.676-2.192 4.166-4.674 4.642zM55.038 96.121h-11.03c-.285 0-.475.192-.475.477v24.012c0 .254.193.447.445.447.25 0 .444-.197.444-.447v-11.576h8.354c.251 0 .444-.193.444-.447 0-.249-.193-.441-.444-.441h-8.354v-11.136h10.615c.252 0 .444-.192.444-.442.001-.255-.191-.447-.443-.447zM72.521 120.168h-10.556v-23.601c0-.254-.193-.446-.444-.446-.252 0-.442.192-.442.446v24.042c0 .268.177.447.442.447h11c.252 0 .442-.193.442-.447 0-.25-.19-.441-.442-.441zM91.383 95.968c-.287-.092-.9-.153-2.218-.153-8.7 0-12.658 7.452-12.691 12.741-.018 3.621 1.313 7.05 3.652 9.405 2.215 2.224 5.273 3.402 8.846 3.402h.062c3.612-.018 6.898-1.35 9.251-3.753 2.415-2.466 3.709-5.858 3.647-9.554-.139-6.558-4.182-11.191-10.549-12.088zm-8.549 8.284c0 3.971 2.642 8.248 8.439 8.248.251 0 .451-.191.451-.441s-.199-.442-.451-.442c-5.188 0-7.551-3.817-7.551-7.364 0-3.433 2.034-7.084 6.535-7.51 6.415.456 10.648 4.904 10.787 11.323.063 3.464-1.139 6.634-3.378 8.923-2.185 2.238-5.252 3.477-8.694 3.49-3.314 0-6.153-1.091-8.205-3.152-2.185-2.198-3.426-5.391-3.406-8.771.026-4.365 2.995-10.446 9.459-11.642-2.471 1.427-3.986 4.129-3.986 7.338zM115.336 109.537c2.531-1.033 4.083-3.508 4.083-6.555 0-4.361-3.101-6.861-8.501-6.861h-2.942c-.251 0-.444.192-.444.446v24.042c0 .254.193.447.444.447.252 0 .442-.193.442-.447v-23.6h2.5c4.838 0 7.611 2.211 7.611 6.064 0 2.763-1.574 5.009-4.106 5.857-.149.053-.265.172-.3.32-.023.096-.033.28.153.469l10.874 11.182c.229.232.641.141.76-.145.064-.166.027-.346-.1-.473l-10.474-10.746zM131.539 96.121c-.249 0-.443.197-.443.446v24.042c0 .25.194.447.443.447.252 0 .445-.193.445-.447v-24.042c0-.254-.193-.446-.445-.446zM145.882 108.07c-2.563-1.91-4.982-3.709-4.982-6.734 0-2.627 1.966-4.606 4.575-4.606.744 0 3.286.153 4.703 2.128.196.236.635.171.764-.105.074-.157.048-.336-.059-.469-1.106-1.523-3.104-2.438-5.347-2.438-2.677 0-5.525 1.935-5.525 5.525 0 3.432 2.706 5.455 5.319 7.412 2.492 1.865 4.843 3.625 4.843 6.467 0 3.109-2.124 5.193-5.287 5.193-1.712 0-3.647-.911-4.96-2.352-.25-.197-.615-.127-.734.131-.074.162-.043.347.092.508 1.559 1.651 3.6 2.602 5.603 2.602 3.636 0 6.176-2.526 6.176-6.143-.001-3.266-2.635-5.228-5.181-7.119zM176.021 96.121h-19.271c-.251 0-.443.192-.443.446 0 .25.192.442.443.442h9.193v23.6c0 .254.192.447.444.447.251 0 .442-.193.442-.447v-23.6h9.191c.252 0 .445-.192.445-.442.002-.254-.192-.446-.444-.446z"/></g></svg>