<svg xmlns="http://www.w3.org/2000/svg" width="50" height="60"><path fill="#C227B9" d="M25 1.5c11.782 0 20 9.496 20 21.209 0 14.747-20 35.791-20 35.791s-20-21.044-20-35.791c0-11.713 8.217-21.209 20-21.209z"/><polygon fill="#fff" points="25,29 25,29 25,29"/><path fill="#fff" d="M23.459 25.561c-3.519-.253-6.581-2.402-7.459-5.905-.789-3.15.371-6.744 3.115-8.576.848-.567 1.81-.943 2.807-1.142.761-.059 1.47.617 1.059 1.398-.346.658-1.446.678-2.051.966-.786.374-1.475.932-2.002 1.624-2.223 2.91-1.337 7.435 2.029 9.035.671 1.007 1.564 1.845 2.502 2.6zm1.226-2.232c-1.144-.958-2.237-2.149-2.322-3.717-.096-1.779 1.194-3.329 2.995-3.443 1.845-.118 3.778.853 4.247 2.731.623 2.5-1.607 4.19-3.794 4.61l1.263.948.696.535c.247-.098.489-.208.726-.332.906-.479 1.696-1.17 2.255-2.032 1.073-1.66 1.181-3.816.206-5.547-1.651-2.925-5.995-3.803-8.643-1.716-1.552 1.223-2.162 3.266-1.788 5.177.474 2.018 1.856 3.457 3.444 4.711 1.581 1.25 3.652 2.382 4.58 4.25.763 1.539.337 3.641-1.105 4.632-1.595 1.097-3.74.728-5.227-.362-.604-.443-1.266-1.482-2.124-.854-1.137.832.318 1.621.729 2.238 3.319 2.642 8.866 1.844 9.881-2.723.998-4.499-3.106-6.667-6.019-9.106z"/></svg>