<svg xmlns="http://www.w3.org/2000/svg" width="90" height="90"><g fill="#C227B9"><path d="M45.477 6.913c-.128-.128-.299-.198-.479-.198-.181 0-.351.07-.479.198-1.459 1.46-2.262 3.399-2.261 5.462.001 2.062.806 4 2.267 5.46.256.256.703.256.958 0 1.459-1.46 2.262-3.399 2.26-5.461-.001-2.062-.805-4.001-2.266-5.461zm-.391 9.322l-.083.109-.083-.108c-.854-1.115-1.306-2.45-1.307-3.862-.001-1.412.449-2.748 1.302-3.861l.083-.109.083.109c.854 1.113 1.306 2.449 1.307 3.862.001 1.411-.45 2.746-1.302 3.86zM45.477 71.316c-.128-.128-.299-.198-.479-.198-.181 0-.351.07-.479.198-1.459 1.461-2.262 3.4-2.261 5.462s.806 4.001 2.267 5.46c.256.256.703.256.958 0 1.459-1.46 2.262-3.399 2.26-5.461-.001-2.061-.805-4.001-2.266-5.461zm-.391 9.323l-.083.109-.083-.108c-.854-1.114-1.306-2.45-1.307-3.862-.001-1.412.449-2.748 1.302-3.861l.083-.109.083.109c.854 1.113 1.306 2.449 1.307 3.862.001 1.41-.45 2.746-1.302 3.86z"/></g><g fill="#C227B9"><path d="M82.66 45.049c.127-.127.197-.298.197-.479 0-.182-.07-.352-.198-.479-1.46-1.459-3.399-2.263-5.462-2.261-2.061.001-4 .806-5.46 2.267-.256.257-.255.702.001.958 1.459 1.459 3.398 2.262 5.461 2.261 2.061-.002 4-.806 5.461-2.267zm-9.323-.391l-.108-.083.107-.083c1.115-.855 2.451-1.307 3.863-1.308s2.747.449 3.861 1.303l.108.083-.108.084c-1.114.854-2.449 1.306-3.863 1.307-1.41 0-2.746-.449-3.86-1.303zM18.256 45.049c.128-.127.198-.298.198-.479 0-.182-.07-.352-.198-.479-1.46-1.459-3.399-2.262-5.461-2.261-2.062.001-4 .806-5.46 2.267-.256.257-.255.702 0 .958 1.46 1.459 3.399 2.262 5.461 2.261s4-.806 5.46-2.267zm-9.322-.391l-.109-.083.108-.083c1.115-.855 2.45-1.307 3.862-1.308s2.748.449 3.861 1.303l.109.083-.109.084c-1.114.854-2.449 1.306-3.862 1.307-1.411 0-2.746-.449-3.86-1.303z"/></g></svg>