<svg xmlns="http://www.w3.org/2000/svg" width="90" height="90"><g fill="#C227B9"><path d="M38.581 39.91c0 2.879 1.827 5.915 5.896 6.361-.792-.664-1.367-1.28-1.797-1.919-1.702-.821-2.716-2.479-2.716-4.442 0-2.025 1.199-4.319 3.879-4.879l.044-.011c.34-.098.555-.42.506-.766-.048-.345-.338-.596-.69-.596l-.148.015c-3.432.688-4.974 3.629-4.974 6.237zM48.086 37.281l-.05.096c-.464-.12-.948-.182-1.438-.182-2.028 0-4.184 1.467-4.184 4.184 0 .299.029.596.086.885l.102.408.147.42c.201.487.486.949.873 1.414.599.717 1.364 1.337 2.034 1.849l.556.42.55.414c1.389 1.059 2.637 2.14 2.637 3.729 0 1.935-1.275 3.184-3.248 3.184l-.061-.003-.035-.003-.315-.021c-.976-.125-1.982-.664-2.692-1.442l-.063-.061c-.13-.108-.298-.171-.468-.171l-.1.007c-.232.034-.429.18-.528.389l-.042.125c-.055.223.008.457.177.658.188.199.398.395.622.578l.054.045c1.039.828 2.262 1.281 3.452 1.281.546 0 1.077-.08 1.579-.238 1.882-.596 3.051-2.27 3.051-4.371l-.021-.422-.009-.064-.006-.048-.045-.288-.02-.09-.01-.045-.065-.249-.042-.136-.086-.234-.016-.037-.037-.09-.111-.234-.018-.038-.037-.071-.154-.264-.04-.065-.22-.318-.041-.052-.198-.249-.087-.099-.172-.19-.092-.096-.183-.185-.115-.111-.174-.161-.119-.106-.186-.16-.025-.021-.092-.077-.213-.174-.193-.153c-.297-.231-.596-.456-.89-.674-.567-.423-1.154-.858-1.664-1.321l-.03-.025-.159-.15-.073-.071-.141-.141-.107-.114-.1-.11-.175-.209-.064-.085-.022-.029-.096-.132-.078-.116-.088-.143-.065-.113-.093-.184-.015-.03-.024-.05-.104-.268-.021-.069-.008-.028-.054-.193-.024-.111-.033-.202-.004-.032-.009-.072-.016-.299c-.001-1.6 1.185-2.795 2.757-2.795l.232.007c.686.038 1.941.257 2.678 1.282l-.068.085.089-.058.063.084-.005.004c.323.486.493 1.026.493 1.566 0 1.596-1.136 2.789-3.053 3.228l.48.359c.293.218.598.444.9.684 2.25-.909 3.054-2.798 3.054-4.271 0-.862-.271-1.703-.782-2.434l-.06-.09-.083-.106-.09-.112-.053-.061-.125-.137-.059-.057-.134-.128-.062-.053-.143-.121-.064-.048-.152-.113-.072-.047-.156-.103-.08-.046-.16-.091-.113-.056-.139-.068-.105-.045-.154-.066-.072-.025-.197-.071-.072-.021-.206-.062.001-.11z"/><polygon points="45.472,44.274 45.472,44.274 45.472,44.274"/></g></svg>