<svg xmlns="http://www.w3.org/2000/svg" width="90" height="90"><g fill="#C227B9"><path d="M70.396 10.977c-.234-.137-.618-.299-1.104-.299-.783 0-1.592.41-2.401 1.22l-5.416 5.416c-3.914 3.914-4.46 8.868-1.327 12.048l.041.04c1.348 1.327 3.045 2.03 4.91 2.03 2.438 0 4.973-1.193 7.137-3.357l5.416-5.416c1.625-1.625 1.275-2.894.922-3.506-.724-1.249-2.74-2.025-5.266-2.025-.264 0-.533.01-.801.027l-.119.008.007-.12c.186-2.831-.618-5.269-1.999-6.066zm2.906 7.517c1.982 0 3.627.538 4.092 1.339.276.479.033 1.124-.704 1.862l-5.416 5.415c-1.895 1.894-4.086 2.937-6.17 2.937-1.521 0-2.895-.562-3.971-1.629-2.588-2.614-2.051-6.784 1.307-10.142l5.416-5.415c.739-.74 1.383-.981 1.861-.706.951.553 1.508 2.749 1.292 5.108l-.007.079-.077.015c-.304.059-.604.127-.894.205-4.123 1.104-6.487 3.919-6.487 7.722 0 .188.084.384.214.496.135.147.316.226.508.226 3.803 0 6.617-2.364 7.723-6.488.077-.288.146-.589.204-.893l.015-.077.078-.008c.339-.03.681-.046 1.016-.046zm-2.534.286l-.041.169-.055.216c-.498 1.859-1.889 5.037-5.608 5.438l-.13.014.014-.13c.4-3.719 3.578-5.11 5.437-5.608l.216-.056.167-.043zM73.306 72.009c2.526 0 4.546-.776 5.269-2.025.354-.612.703-1.881-.922-3.505l-5.416-5.416c-2.164-2.165-4.699-3.357-7.137-3.357-1.865 0-3.562.702-4.911 2.03l-.04.04c-3.133 3.179-2.588 8.133 1.327 12.048l5.416 5.415c.81.811 1.618 1.221 2.401 1.221.485 0 .869-.162 1.104-.299 1.381-.799 2.185-3.236 1.999-6.066l-.007-.119.119.008c.266.016.535.025.798.025zm-1.021-1.413l-.078-.008-.015-.077c-.059-.304-.128-.604-.204-.893-1.105-4.123-3.92-6.488-7.723-6.488-.189 0-.384.085-.496.215-.146.134-.226.315-.226.507 0 3.803 2.364 6.618 6.487 7.723.29.078.59.146.894.205l.077.015.007.079c.216 2.358-.341 4.555-1.292 5.106-.129.075-.27.112-.422.112-.414 0-.898-.275-1.439-.816l-5.416-5.416c-3.357-3.357-3.895-7.527-1.308-10.141 1.077-1.066 2.45-1.63 3.972-1.63 2.084 0 4.275 1.043 6.17 2.937l5.416 5.416c.737.738.98 1.382.705 1.861-.466.801-2.109 1.34-4.09 1.34-.335 0-.678-.016-1.019-.047zm-1.515-.243l-.168-.039-.193-.049c-1.883-.505-5.061-1.896-5.461-5.614l-.014-.131.129.015c3.721.399 5.111 3.577 5.609 5.437l.055.215.043.166zM19.566 78.16c.235.137.618.299 1.103.299.785 0 1.593-.41 2.402-1.221l5.416-5.415c3.915-3.915 4.46-8.869 1.327-12.048l-.04-.041c-1.348-1.327-3.046-2.029-4.911-2.029-2.438 0-4.972 1.192-7.137 3.357l-5.416 5.415c-1.625 1.626-1.275 2.894-.921 3.506.723 1.249 2.74 2.025 5.265 2.025.264 0 .534-.009.801-.026l.12-.008-.008.119c-.185 2.831.619 5.268 1.999 6.067zm-2.905-7.518c-1.981 0-3.625-.538-4.091-1.339-.277-.479-.034-1.123.705-1.861l5.416-5.416c1.894-1.894 4.084-2.937 6.169-2.937 1.521 0 2.895.563 3.971 1.63 2.588 2.613 2.051 6.783-1.307 10.141l-5.416 5.416c-.541.541-1.026.816-1.44.816-.151 0-.293-.037-.421-.111-.952-.553-1.508-2.748-1.293-5.107l.007-.079.077-.015c.311-.061.611-.129.893-.205 4.123-1.104 6.488-3.92 6.488-7.723 0-.188-.084-.383-.215-.496-.134-.146-.315-.226-.507-.226-3.802 0-6.617 2.365-7.722 6.488-.076.285-.146.585-.205.893l-.015.077-.079.008c-.338.031-.68.046-1.015.046zm2.535-.287l.041-.168.055-.217c.498-1.859 1.889-5.037 5.608-5.437l.129-.015-.014.13c-.399 3.72-3.578 5.11-5.437 5.608l-.382.099zM16.658 17.127c-2.527 0-4.546.776-5.268 2.025-.354.611-.704 1.881.921 3.506l5.416 5.416c2.165 2.164 4.7 3.357 7.137 3.357 1.865 0 3.563-.703 4.911-2.03l.04-.041c3.133-3.179 2.587-8.133-1.328-12.047l-5.416-5.416c-.81-.81-1.618-1.22-2.402-1.22-.485 0-.868.162-1.104.299-1.381.799-2.184 3.236-1.999 6.065l.007.119-.119-.008c-.265-.016-.533-.025-.796-.025zm1.019 1.413l.079.008.015.077c.059.307.128.607.205.893 1.105 4.124 3.919 6.488 7.722 6.488.189 0 .384-.084.497-.214.147-.135.226-.316.226-.508 0-3.803-2.365-6.617-6.488-7.722-.289-.078-.589-.146-.893-.205l-.077-.015-.007-.079c-.214-2.359.341-4.555 1.293-5.107.479-.276 1.123-.034 1.861.705l5.416 5.415c3.357 3.357 3.895 7.729 1.308 10.342-1.078 1.066-2.45 1.831-3.971 1.831h-.003c-2.085 0-4.276-1.244-6.169-3.138l-5.416-5.517c-.738-.738-.981-1.432-.705-1.911.465-.802 2.109-1.365 4.09-1.365.335.001.677-.008 1.017.022zm1.517.241l.169.041.216.056c1.859.498 5.037 1.89 5.437 5.608l.014.13-.13-.014c-3.72-.399-5.111-3.577-5.609-5.437l-.055-.215-.042-.169z"/></g></svg>