<svg xmlns="http://www.w3.org/2000/svg" width="130" height="130"><g fill="#2D2D2D"><path d="M65.757 5.314c-.204-.203-.474-.314-.761-.314s-.556.111-.759.314c-2.313 2.314-3.585 5.388-3.584 8.657.002 3.267 1.277 6.339 3.593 8.653.406.406 1.113.406 1.518 0 2.313-2.314 3.586-5.388 3.582-8.655 0-3.267-1.276-6.341-3.589-8.655zm-.62 14.775l-.133.173-.132-.172c-1.354-1.768-2.07-3.883-2.071-6.121-.001-2.238.712-4.355 2.064-6.12l.132-.173.132.173c1.354 1.764 2.069 3.881 2.07 6.121.002 2.237-.712 4.353-2.062 6.119zM65.757 107.387c-.204-.203-.474-.314-.761-.314s-.556.111-.759.314c-2.313 2.315-3.585 5.389-3.584 8.656.002 3.268 1.277 6.341 3.593 8.653.406.405 1.113.405 1.518 0 2.313-2.313 3.586-5.388 3.582-8.655 0-3.267-1.276-6.341-3.589-8.654zm-.62 14.774l-.133.174-.132-.172c-1.354-1.767-2.07-3.884-2.071-6.122-.001-2.237.712-4.355 2.064-6.119l.132-.174.132.174c1.354 1.764 2.069 3.882 2.07 6.121.002 2.236-.712 4.353-2.062 6.118zM124.688 65.755c.201-.202.312-.472.312-.759 0-.288-.111-.557-.314-.76-2.313-2.312-5.388-3.586-8.656-3.583-3.266.001-6.34 1.277-8.653 3.592-.405.407-.404 1.113.001 1.519 2.312 2.312 5.387 3.584 8.655 3.583 3.265-.001 6.339-1.277 8.655-3.592zm-14.777-.619l-.172-.132.17-.131c1.768-1.356 3.885-2.071 6.123-2.073 2.238-.001 4.354.712 6.12 2.065l.172.131-.172.133c-1.767 1.353-3.882 2.069-6.123 2.071-2.235.001-4.352-.711-6.118-2.064zM22.614 65.755c.203-.202.314-.472.314-.759 0-.288-.111-.557-.314-.76-2.314-2.312-5.388-3.584-8.656-3.583-3.268.001-6.34 1.277-8.654 3.592-.406.407-.405 1.113 0 1.519 2.314 2.312 5.388 3.584 8.655 3.583 3.268-.001 6.341-1.277 8.655-3.592zm-14.775-.619l-.173-.132.172-.131c1.767-1.356 3.883-2.071 6.122-2.073 2.238-.001 4.354.712 6.12 2.065l.172.131-.172.133c-1.765 1.353-3.882 2.069-6.121 2.071-2.238.001-4.354-.711-6.12-2.064z"/></g></svg>