<svg xmlns="http://www.w3.org/2000/svg" width="130" height="130"><g fill="#2D2D2D"><path d="M105.251 11.754c-.372-.217-.98-.474-1.749-.474-1.241 0-2.523.65-3.806 1.933l-8.584 8.584c-6.204 6.203-7.068 14.055-2.104 19.094l.064.063c2.137 2.104 4.826 3.218 7.782 3.218 3.863 0 7.882-1.891 11.312-5.321l8.583-8.583c2.576-2.576 2.021-4.586 1.462-5.557-1.147-1.979-4.344-3.21-8.346-3.21-.418 0-.845.016-1.27.043l-.188.012.011-.19c.295-4.484-.979-8.347-3.167-9.612zm4.604 11.915c3.142 0 5.748.853 6.484 2.122.438.76.053 1.781-1.115 2.951l-8.584 8.583c-3.003 3.001-6.476 4.654-9.778 4.654-2.412 0-4.588-.891-6.294-2.582-4.102-4.143-3.25-10.752 2.071-16.073l8.584-8.582c1.172-1.173 2.191-1.556 2.95-1.119 1.507.876 2.39 4.357 2.047 8.096l-.011.125-.122.023c-.481.093-.956.201-1.416.325-6.534 1.75-10.281 6.211-10.281 12.238 0 .299.133.608.339.787.213.233.501.357.805.357 6.026 0 10.487-3.747 12.239-10.283.122-.457.23-.934.323-1.415l.023-.123.124-.012c.539-.047 1.081-.072 1.612-.072zm-4.016.454l-.065.268-.086.342c-.79 2.947-2.994 7.983-8.889 8.618l-.206.021.021-.206c.635-5.894 5.671-8.1 8.616-8.889l.342-.088.267-.066zM109.861 108.483c4.004 0 7.205-1.23 8.351-3.21.56-.97 1.114-2.98-1.462-5.555l-8.583-8.584c-3.43-3.431-7.448-5.321-11.312-5.321-2.956 0-5.646 1.113-7.783 3.218l-.063.063c-4.965 5.038-4.102 12.89 2.104 19.095l8.584 8.582c1.282 1.285 2.564 1.936 3.806 1.936.769 0 1.377-.258 1.749-.474 2.188-1.267 3.462-5.13 3.168-9.615l-.011-.188.188.013c.423.027.848.04 1.264.04zm-1.617-2.239l-.124-.013-.023-.122c-.093-.481-.202-.958-.323-1.414-1.752-6.535-6.213-10.283-12.239-10.283-.301 0-.608.134-.786.34-.232.212-.357.5-.357.804 0 6.026 3.747 10.489 10.281 12.239.46.124.935.232 1.416.325l.122.023.011.125c.343 3.738-.54 7.219-2.047 8.093-.205.119-.428.179-.669.179-.656 0-1.424-.437-2.281-1.294l-8.584-8.584c-5.321-5.321-6.173-11.93-2.072-16.072 1.707-1.689 3.883-2.583 6.295-2.583 3.303 0 6.775 1.653 9.778 4.654l8.584 8.584c1.168 1.17 1.554 2.189 1.117 2.95-.738 1.269-3.343 2.123-6.481 2.123-.535 0-1.078-.024-1.618-.074zm-2.402-.386l-.266-.062-.307-.077c-2.984-.801-8.021-3.005-8.655-8.898l-.021-.207.204.023c5.896.633 8.101 5.669 8.891 8.616l.086.34.068.265zM24.69 118.233c.373.216.98.474 1.749.474 1.244 0 2.524-.65 3.807-1.936l8.583-8.582c6.204-6.205 7.069-14.057 2.104-19.095l-.063-.064c-2.136-2.104-4.827-3.217-7.783-3.217-3.863 0-7.88 1.891-11.312 5.321l-8.583 8.583c-2.575 2.576-2.021 4.586-1.46 5.556 1.146 1.979 4.343 3.21 8.344 3.21.419 0 .846-.014 1.27-.041l.189-.013-.012.188c-.294 4.487.98 8.35 3.167 9.616zm-4.605-11.917c-3.141 0-5.746-.853-6.484-2.121-.439-.761-.053-1.78 1.118-2.95l8.583-8.584c3.001-3.001 6.474-4.654 9.778-4.654 2.411 0 4.587.894 6.294 2.583 4.103 4.143 3.25 10.751-2.072 16.072l-8.583 8.584c-.857.857-1.626 1.294-2.283 1.294-.24 0-.464-.06-.667-.177-1.509-.876-2.39-4.355-2.049-8.095l.012-.125.122-.023c.492-.096.968-.204 1.416-.325 6.535-1.75 10.283-6.213 10.283-12.239 0-.299-.134-.607-.34-.786-.212-.232-.5-.357-.804-.357-6.026 0-10.488 3.748-12.239 10.283-.121.451-.231.927-.324 1.414l-.024.122-.125.013c-.538.049-1.08.071-1.612.071zm4.018-.453l.064-.266.087-.344c.79-2.947 2.994-7.983 8.889-8.616l.205-.023-.021.206c-.633 5.895-5.67 8.099-8.616 8.889l-.608.154zM20.081 21.502c-4.005 0-7.205 1.23-8.349 3.21-.561.969-1.115 2.981 1.46 5.557l8.583 8.583c3.432 3.43 7.449 5.321 11.312 5.321 2.956 0 5.647-1.114 7.784-3.218l.063-.065c4.965-5.038 4.1-12.89-2.104-19.093l-8.583-8.584c-1.283-1.283-2.563-1.933-3.807-1.933-.769 0-1.376.257-1.749.474-2.188 1.266-3.461 5.129-3.167 9.613l.012.189-.189-.012c-.424-.028-.849-.042-1.266-.042zm1.615 2.24l.125.012.024.123c.093.486.204.962.324 1.415 1.751 6.536 6.212 10.283 12.238 10.283.3 0 .609-.133.787-.339.233-.214.358-.501.358-.805 0-6.027-3.749-10.487-10.283-12.238-.458-.124-.934-.232-1.416-.325l-.122-.023-.012-.125c-.34-3.739.541-7.219 2.049-8.095.759-.438 1.779-.054 2.95 1.118l8.583 8.582c5.321 5.321 6.173 12.249 2.073 16.391-1.708 1.69-3.883 2.902-6.293 2.902h-.001c-3.304 0-6.777-1.972-9.778-4.973l-8.584-8.745c-1.169-1.17-1.555-2.269-1.117-3.029.737-1.271 3.343-2.164 6.482-2.164.532.001 1.075-.013 1.613.035zm2.404.382l.268.065.343.088c2.946.789 7.983 2.995 8.617 8.889l.022.206-.205-.023c-5.896-.633-8.1-5.669-8.89-8.616l-.087-.341-.068-.268z"/></g></svg>