<?xml version="1.0" encoding="utf-8"?>
<!-- Generator: Adobe Illustrator 16.0.0, SVG Export Plug-In . SVG Version: 6.00 Build 0)  -->
<!DOCTYPE svg PUBLIC "-//W3C//DTD SVG 1.1//EN" "http://www.w3.org/Graphics/SVG/1.1/DTD/svg11.dtd">
<svg version="1.1" id="Layer_1" xmlns="http://www.w3.org/2000/svg" xmlns:xlink="http://www.w3.org/1999/xlink" x="0px" y="0px"
	 width="130px" height="130px" viewBox="0 0 130 130" enable-background="new 0 0 130 130" xml:space="preserve">
<g>
	<path fill="#2D2D2D" d="M54.827,57.611c0,4.563,2.895,9.375,9.344,10.083c-1.255-1.053-2.167-2.029-2.848-3.042
		c-2.697-1.302-4.306-3.93-4.306-7.041c0-3.21,1.9-6.846,6.147-7.732l0.071-0.017c0.539-0.155,0.879-0.666,0.802-1.213
		c-0.076-0.546-0.536-0.944-1.094-0.944l-0.235,0.023C57.271,48.816,54.827,53.477,54.827,57.611z"/>
	<g>
		<path fill="#2D2D2D" d="M69.891,53.444l-0.079,0.152c-0.734-0.19-1.502-0.288-2.279-0.288c-3.215,0-6.631,2.325-6.631,6.631
			c0,0.473,0.045,0.944,0.136,1.402c0.044,0.222,0.095,0.424,0.161,0.647c0.073,0.25,0.148,0.458,0.233,0.666
			c0.318,0.772,0.771,1.504,1.384,2.241c0.949,1.136,2.162,2.119,3.224,2.93c0.296,0.225,0.589,0.447,0.882,0.666
			c0.307,0.229,0.593,0.442,0.871,0.656c2.201,1.678,4.179,3.391,4.179,5.91c0,3.066-2.021,5.046-5.147,5.046
			c-0.032,0-0.065-0.001-0.096-0.005l-0.056-0.004c-0.164-0.005-0.33-0.011-0.499-0.033c-1.547-0.197-3.142-1.052-4.268-2.285
			l-0.101-0.097c-0.205-0.172-0.473-0.271-0.742-0.271c-0.053,0-0.105,0.005-0.157,0.011c-0.368,0.054-0.681,0.285-0.837,0.616
			c-0.029,0.063-0.05,0.13-0.066,0.198c-0.088,0.353,0.013,0.724,0.281,1.043c0.297,0.315,0.63,0.625,0.984,0.916l0.086,0.071
			c1.646,1.312,3.584,2.03,5.47,2.03c0.865,0,1.707-0.127,2.503-0.377c2.982-0.944,4.835-3.598,4.835-6.928
			c0-0.217-0.011-0.436-0.034-0.669c-0.003-0.035-0.008-0.069-0.014-0.103l-0.01-0.075c-0.02-0.153-0.04-0.309-0.071-0.457
			c-0.009-0.048-0.019-0.096-0.03-0.143l-0.016-0.07c-0.031-0.134-0.065-0.267-0.104-0.396c-0.021-0.072-0.045-0.146-0.066-0.215
			c-0.044-0.125-0.089-0.251-0.137-0.371l-0.024-0.06c-0.019-0.048-0.037-0.096-0.059-0.142c-0.057-0.127-0.115-0.249-0.177-0.372
			l-0.028-0.061c-0.021-0.038-0.04-0.075-0.059-0.112c-0.077-0.143-0.159-0.282-0.244-0.418l-0.061-0.103
			c-0.11-0.172-0.228-0.339-0.349-0.504l-0.064-0.082c-0.103-0.134-0.206-0.265-0.314-0.396l-0.138-0.156
			c-0.09-0.102-0.18-0.202-0.272-0.302c-0.047-0.053-0.096-0.102-0.146-0.151c-0.108-0.114-0.198-0.204-0.289-0.293l-0.185-0.176
			c-0.09-0.085-0.183-0.172-0.275-0.256l-0.188-0.168c-0.098-0.086-0.197-0.169-0.295-0.254l-0.04-0.034
			c-0.049-0.04-0.096-0.082-0.146-0.122c-0.111-0.094-0.225-0.185-0.337-0.276c-0.103-0.08-0.204-0.162-0.307-0.242
			c-0.471-0.367-0.944-0.724-1.41-1.068c-0.899-0.67-1.829-1.36-2.637-2.094l-0.048-0.04c-0.086-0.079-0.169-0.158-0.252-0.238
			l-0.116-0.113c-0.076-0.074-0.15-0.148-0.223-0.223l-0.17-0.181c-0.053-0.059-0.107-0.116-0.158-0.175
			c-0.096-0.108-0.188-0.22-0.278-0.331c-0.034-0.045-0.067-0.088-0.101-0.135l-0.035-0.046c-0.052-0.07-0.103-0.14-0.151-0.209
			c-0.043-0.061-0.084-0.123-0.123-0.184c-0.049-0.075-0.096-0.15-0.141-0.226c-0.048-0.081-0.075-0.13-0.103-0.18
			c-0.053-0.096-0.101-0.192-0.147-0.291l-0.023-0.048c-0.014-0.026-0.026-0.053-0.039-0.079c-0.062-0.139-0.115-0.28-0.165-0.424
			c-0.012-0.036-0.022-0.073-0.034-0.11l-0.013-0.045c-0.031-0.099-0.061-0.203-0.085-0.307c-0.014-0.059-0.026-0.118-0.038-0.176
			c-0.021-0.105-0.039-0.212-0.053-0.32l-0.007-0.051c-0.006-0.037-0.011-0.077-0.015-0.115c-0.015-0.155-0.024-0.312-0.024-0.473
			c-0.002-2.536,1.877-4.43,4.369-4.43c0.095,0,0.222,0.003,0.368,0.011c1.087,0.06,3.077,0.407,4.244,2.032l-0.108,0.134
			l0.141-0.091l0.101,0.133l-0.007,0.006c0.512,0.771,0.781,1.626,0.781,2.482c0,2.529-1.8,4.42-4.838,5.115
			c0.249,0.188,0.504,0.378,0.761,0.57c0.465,0.345,0.947,0.704,1.428,1.083c3.565-1.441,4.84-4.435,4.84-6.769
			c0-1.367-0.429-2.699-1.24-3.857c-0.034-0.059-0.062-0.102-0.095-0.143l-0.131-0.168c-0.047-0.061-0.093-0.121-0.143-0.178
			l-0.084-0.096c-0.071-0.081-0.133-0.149-0.198-0.217l-0.093-0.09c-0.067-0.068-0.138-0.136-0.212-0.203l-0.098-0.083
			c-0.083-0.073-0.151-0.135-0.226-0.192l-0.103-0.076c-0.09-0.068-0.164-0.125-0.241-0.179l-0.114-0.074
			c-0.104-0.07-0.175-0.118-0.248-0.163l-0.127-0.073c-0.106-0.062-0.18-0.105-0.254-0.144l-0.18-0.088
			c-0.07-0.037-0.144-0.074-0.22-0.108l-0.167-0.071c-0.08-0.036-0.161-0.071-0.244-0.105l-0.114-0.04
			c-0.121-0.045-0.216-0.081-0.313-0.113l-0.114-0.034c-0.119-0.037-0.223-0.069-0.326-0.097L69.891,53.444L69.891,53.444z"/>
		<polygon fill="#2D2D2D" points="65.748,64.528 65.748,64.528 65.748,64.528 		"/>
	</g>
</g>
</svg>
