<?xml version="1.0" encoding="utf-8"?>
<!-- Generator: Adobe Illustrator 16.0.0, SVG Export Plug-In . SVG Version: 6.00 Build 0)  -->
<!DOCTYPE svg PUBLIC "-//W3C//DTD SVG 1.1//EN" "http://www.w3.org/Graphics/SVG/1.1/DTD/svg11.dtd">
<svg version="1.1" id="Layer_1" xmlns="http://www.w3.org/2000/svg" xmlns:xlink="http://www.w3.org/1999/xlink" x="0px" y="0px"
	 width="90px" height="90px" viewBox="0 0 90 90" enable-background="new 0 0 90 90" xml:space="preserve">
<g>
	<path fill="#C227B9" d="M38.581,39.91c0,2.879,1.827,5.915,5.896,6.361c-0.792-0.664-1.367-1.28-1.797-1.919
		c-1.702-0.821-2.716-2.479-2.716-4.442c0-2.025,1.199-4.319,3.879-4.879l0.044-0.011c0.34-0.098,0.555-0.42,0.506-0.766
		c-0.048-0.345-0.338-0.596-0.69-0.596l-0.148,0.015C40.123,34.361,38.581,37.302,38.581,39.91z"/>
	<g>
		<path fill="#C227B9" d="M48.086,37.281l-0.05,0.096c-0.464-0.12-0.948-0.182-1.438-0.182c-2.028,0-4.184,1.467-4.184,4.184
			c0,0.299,0.029,0.596,0.086,0.885c0.027,0.14,0.06,0.268,0.102,0.408c0.046,0.157,0.094,0.289,0.147,0.42
			c0.201,0.487,0.486,0.949,0.873,1.414c0.599,0.717,1.364,1.337,2.034,1.849c0.187,0.142,0.372,0.282,0.556,0.42
			c0.193,0.145,0.374,0.279,0.55,0.414c1.389,1.059,2.637,2.14,2.637,3.729c0,1.935-1.275,3.184-3.248,3.184
			c-0.021,0-0.041-0.001-0.061-0.003l-0.035-0.003c-0.104-0.003-0.208-0.007-0.315-0.021c-0.976-0.125-1.982-0.664-2.692-1.442
			l-0.063-0.061c-0.13-0.108-0.298-0.171-0.468-0.171c-0.034,0-0.067,0.003-0.1,0.007c-0.232,0.034-0.429,0.18-0.528,0.389
			c-0.019,0.04-0.031,0.082-0.042,0.125c-0.055,0.223,0.008,0.457,0.177,0.658c0.188,0.199,0.398,0.395,0.622,0.578l0.054,0.045
			c1.039,0.828,2.262,1.281,3.452,1.281c0.546,0,1.077-0.08,1.579-0.238c1.882-0.596,3.051-2.27,3.051-4.371
			c0-0.137-0.007-0.274-0.021-0.422c-0.002-0.022-0.005-0.044-0.009-0.064l-0.006-0.048c-0.013-0.097-0.025-0.194-0.045-0.288
			c-0.006-0.03-0.012-0.061-0.02-0.09l-0.01-0.045c-0.02-0.084-0.041-0.168-0.065-0.249c-0.013-0.046-0.028-0.092-0.042-0.136
			c-0.027-0.079-0.056-0.158-0.086-0.234l-0.016-0.037c-0.012-0.03-0.023-0.061-0.037-0.09c-0.035-0.08-0.072-0.157-0.111-0.234
			l-0.018-0.038c-0.014-0.024-0.025-0.048-0.037-0.071c-0.049-0.09-0.101-0.178-0.154-0.264L50.065,48.5
			c-0.069-0.108-0.144-0.214-0.22-0.318l-0.041-0.052c-0.064-0.084-0.13-0.167-0.198-0.249l-0.087-0.099
			c-0.057-0.064-0.113-0.128-0.172-0.19c-0.029-0.033-0.061-0.064-0.092-0.096c-0.068-0.072-0.125-0.129-0.183-0.185L48.957,47.2
			c-0.057-0.054-0.115-0.108-0.174-0.161l-0.119-0.106c-0.062-0.054-0.124-0.106-0.186-0.16l-0.025-0.021
			c-0.031-0.025-0.061-0.052-0.092-0.077c-0.07-0.059-0.142-0.116-0.213-0.174c-0.064-0.051-0.129-0.103-0.193-0.153
			c-0.297-0.231-0.596-0.456-0.89-0.674c-0.567-0.423-1.154-0.858-1.664-1.321l-0.03-0.025c-0.054-0.05-0.107-0.1-0.159-0.15
			l-0.073-0.071c-0.048-0.047-0.095-0.094-0.141-0.141l-0.107-0.114c-0.034-0.037-0.068-0.073-0.1-0.11
			c-0.061-0.068-0.119-0.139-0.175-0.209c-0.022-0.028-0.043-0.056-0.064-0.085l-0.022-0.029c-0.033-0.044-0.065-0.088-0.096-0.132
			c-0.027-0.038-0.053-0.077-0.078-0.116c-0.031-0.047-0.06-0.095-0.088-0.143c-0.03-0.051-0.048-0.082-0.065-0.113
			c-0.033-0.061-0.063-0.121-0.093-0.184l-0.015-0.03c-0.008-0.017-0.017-0.033-0.024-0.05c-0.039-0.088-0.073-0.177-0.104-0.268
			c-0.008-0.022-0.015-0.046-0.021-0.069l-0.008-0.028c-0.02-0.062-0.038-0.128-0.054-0.193c-0.009-0.037-0.017-0.074-0.024-0.111
			c-0.014-0.066-0.024-0.134-0.033-0.202l-0.004-0.032c-0.003-0.023-0.007-0.049-0.009-0.072c-0.009-0.098-0.015-0.197-0.016-0.299
			c-0.001-1.6,1.185-2.795,2.757-2.795c0.06,0,0.14,0.002,0.232,0.007c0.686,0.038,1.941,0.257,2.678,1.282l-0.068,0.085
			l0.089-0.058l0.063,0.084l-0.005,0.004c0.323,0.486,0.493,1.026,0.493,1.566c0,1.596-1.136,2.789-3.053,3.228
			c0.157,0.118,0.318,0.238,0.48,0.359c0.293,0.218,0.598,0.444,0.9,0.684c2.25-0.909,3.054-2.798,3.054-4.271
			c0-0.862-0.271-1.703-0.782-2.434c-0.021-0.037-0.039-0.064-0.06-0.09l-0.083-0.106c-0.029-0.038-0.059-0.076-0.09-0.112
			l-0.053-0.061c-0.045-0.051-0.084-0.094-0.125-0.137l-0.059-0.057c-0.043-0.043-0.087-0.086-0.134-0.128l-0.062-0.053
			c-0.053-0.046-0.096-0.085-0.143-0.121l-0.064-0.048c-0.057-0.043-0.104-0.079-0.152-0.113l-0.072-0.047
			c-0.065-0.044-0.11-0.074-0.156-0.103l-0.08-0.046c-0.067-0.039-0.113-0.066-0.16-0.091l-0.113-0.056
			c-0.045-0.023-0.091-0.047-0.139-0.068l-0.105-0.045c-0.051-0.022-0.102-0.045-0.154-0.066l-0.072-0.025
			c-0.076-0.028-0.136-0.051-0.197-0.071l-0.072-0.021c-0.075-0.023-0.141-0.044-0.206-0.062L48.086,37.281L48.086,37.281z"/>
		<polygon fill="#C227B9" points="45.472,44.274 45.472,44.274 45.472,44.274 		"/>
	</g>
</g>
</svg>
