<?xml version="1.0" encoding="utf-8"?>
<!-- Generator: Adobe Illustrator 16.0.0, SVG Export Plug-In . SVG Version: 6.00 Build 0)  -->
<!DOCTYPE svg PUBLIC "-//W3C//DTD SVG 1.1//EN" "http://www.w3.org/Graphics/SVG/1.1/DTD/svg11.dtd">
<svg version="1.1" id="Layer_1" xmlns="http://www.w3.org/2000/svg" xmlns:xlink="http://www.w3.org/1999/xlink" x="0px" y="0px"
	 width="220px" height="140px" viewBox="0 0 220 140" enable-background="new 0 0 220 140" xml:space="preserve">
<g>
	<g>
		<path fill="#C227B9" d="M77.791,18.772h9.192v23.6c0,0.254,0.193,0.446,0.444,0.446c0.252,0,0.444-0.192,0.444-0.446v-23.6h9.19
			c0.252,0,0.445-0.193,0.445-0.442s-0.193-0.442-0.445-0.442H77.791c-0.252,0-0.442,0.193-0.442,0.442S77.539,18.772,77.791,18.772
			z"/>
		<path fill="#C227B9" d="M104.2,42.818c0.252,0,0.444-0.192,0.444-0.446V30.795h16.246v11.577c0,0.254,0.193,0.446,0.444,0.446
			c0.252,0,0.442-0.192,0.442-0.446V18.33c0-0.25-0.19-0.442-0.442-0.442c-0.251,0-0.444,0.193-0.444,0.442v11.577h-16.246V18.33
			c0-0.25-0.192-0.442-0.444-0.442s-0.444,0.193-0.444,0.442v24.042C103.756,42.625,103.948,42.818,104.2,42.818z"/>
		<path fill="#C227B9" d="M131.147,42.818h11.062c0.252,0,0.443-0.192,0.443-0.446c0-0.25-0.191-0.442-0.443-0.442h-10.617V30.795
			h8.385c0.252,0,0.444-0.192,0.444-0.442c0-0.254-0.192-0.447-0.444-0.447h-8.385V18.772h10.617c0.252,0,0.443-0.193,0.443-0.442
			s-0.191-0.442-0.443-0.442h-11.031c-0.284,0-0.475,0.193-0.475,0.473v24.011C130.703,42.625,130.896,42.818,131.147,42.818z"/>
	</g>
	<g>
		<path fill="#C227B9" d="M34.435,55.844c-0.653,0-1.164,0.511-1.164,1.164v24.043c0,0.652,0.511,1.163,1.164,1.163
			c0.652,0,1.164-0.511,1.164-1.163V57.007C35.599,56.354,35.087,55.844,34.435,55.844z"/>
		<path fill="#C227B9" d="M62.426,79.621c0.021-0.018,0.041-0.035,0.06-0.055c0.225-0.224,0.36-0.549,0.36-0.871v-8.489
			c0-0.652-0.511-1.163-1.164-1.163c-0.652,0-1.164,0.511-1.164,1.163v7.97c-0.618,0.477-1.171,0.85-1.829,1.167
			c-1.239,0.62-2.743,0.947-4.351,0.947c-3.377,0-6.772-1.44-8.65-3.673c-1.683-1.982-2.61-4.589-2.61-7.34
			c0-4.742,2.839-9.119,6.914-10.647c1.323-0.51,2.724-0.758,4.284-0.758c0.251,0,0.503,0.006,0.754,0.019
			c2.333,0.12,4.246,0.743,6.018,1.962c0.017,0.012,0.035,0.023,0.053,0.034c0.179,0.107,0.382,0.164,0.588,0.164
			c0.517,0,0.976-0.353,1.115-0.859c0.135-0.485-0.055-0.985-0.472-1.259c-2.108-1.455-4.454-2.229-7.171-2.367
			c-0.295-0.015-0.588-0.021-0.88-0.021c-1.846,0-3.524,0.291-5.141,0.893c-5.019,1.938-8.392,7.097-8.392,12.839
			c0,3.276,1.119,6.411,3.152,8.832c2.355,2.78,6.354,4.509,10.437,4.509c1.96,0,3.819-0.412,5.366-1.186
			C60.656,80.971,61.47,80.43,62.426,79.621z"/>
		<path fill="#C227B9" d="M90.661,81.793c0.115,0.115,0.419,0.421,0.901,0.421c0.653,0,1.164-0.524,1.164-1.194V57.007
			c0-0.653-0.511-1.164-1.164-1.164c-0.652,0-1.164,0.511-1.164,1.164v20.889L72.099,56.293c-0.018-0.021-0.037-0.042-0.057-0.062
			c-0.106-0.106-0.388-0.387-0.898-0.387c-0.652,0-1.164,0.511-1.164,1.164v24.043c0,0.652,0.511,1.163,1.164,1.163
			c0.653,0,1.164-0.511,1.164-1.163V60.159l18.299,21.576C90.624,81.754,90.642,81.773,90.661,81.793z"/>
		<path fill="#C227B9" d="M115.555,72.269l3.748,9.21c0.189,0.441,0.614,0.727,1.084,0.727c0.377,0,0.732-0.182,0.953-0.486
			c0.217-0.303,0.275-0.693,0.158-1.049c-0.008-0.021-0.015-0.041-0.023-0.062L111.686,56.6c-0.183-0.455-0.611-0.749-1.091-0.749
			c-0.481,0-0.91,0.295-1.088,0.742L99.66,80.561c-0.159,0.371-0.126,0.787,0.088,1.112c0.213,0.323,0.574,0.517,0.965,0.517
			c0.447,0,0.852-0.251,1.054-0.656c0.011-0.023,0.021-0.045,0.032-0.068l3.771-9.196H115.555z M110.587,60.078l3.995,9.863h-8.058
			L110.587,60.078z"/>
		<path fill="#C227B9" d="M143.17,57.007c0-0.653-0.512-1.164-1.163-1.164h-19.272c-0.652,0-1.164,0.511-1.164,1.164
			c0,0.652,0.512,1.164,1.164,1.164h8.473v22.88c0,0.652,0.511,1.163,1.164,1.163c0.652,0,1.162-0.511,1.162-1.163v-22.88h8.474
			C142.658,58.171,143.17,57.66,143.17,57.007z"/>
		<path fill="#C227B9" d="M158.637,82.555c6.617,0,10.892-4.969,10.892-12.658V57.007c0-0.653-0.511-1.164-1.163-1.164
			s-1.164,0.511-1.164,1.164v12.92c0,6.354-3.281,10.301-8.564,10.301c-6.598,0-8.938-5.566-8.938-10.332V57.007
			c0-0.653-0.512-1.164-1.164-1.164s-1.164,0.511-1.164,1.164v12.92C147.371,77.599,151.793,82.555,158.637,82.555z"/>
		<path fill="#C227B9" d="M184.889,70.186c2.249-1.327,3.594-3.799,3.594-6.765c0-4.744-3.446-7.577-9.219-7.577h-2.943
			c-0.652,0-1.164,0.511-1.164,1.164v24.043c0,0.652,0.512,1.163,1.164,1.163s1.162-0.511,1.162-1.163v-22.88h1.781
			c2.573,0,6.892,0.694,6.892,5.343c0,2.479-1.354,4.415-3.616,5.177c-0.385,0.128-0.682,0.45-0.773,0.84
			c-0.097,0.408,0.03,0.824,0.338,1.131l10.885,11.196c0.225,0.225,0.521,0.349,0.836,0.349c0.474-0.001,0.914-0.294,1.096-0.731
			c0.179-0.432,0.078-0.927-0.248-1.252L184.889,70.186z"/>
		<path fill="#C227B9" d="M211.647,79.887h-9.897v-9.694h7.666c0.653,0,1.164-0.511,1.164-1.164s-0.511-1.164-1.164-1.164h-7.666
			v-9.694h9.897c0.652,0,1.163-0.511,1.163-1.164c0-0.653-0.511-1.164-1.163-1.164h-11.03c-0.682,0-1.194,0.513-1.194,1.194v24.013
			c0,0.652,0.511,1.163,1.163,1.163h11.062c0.652,0,1.163-0.511,1.163-1.163S212.3,79.887,211.647,79.887z"/>
		<path fill="#C227B9" d="M13.441,65.979c-2.681-1.274-3.924-3.832-3.924-6.377c0-2.899,1.716-6.184,5.551-6.985l0.07-0.018
			c0.578-0.165,0.938-0.707,0.856-1.29c-0.081-0.581-0.57-1.002-1.162-1.002l-0.231,0.022c-5.121,1.024-7.413,5.395-7.413,9.272
			c0,4.365,2.908,9.043,9.258,9.501C15.336,68.209,14.25,67.193,13.441,65.979z"/>
		<path fill="#C227B9" d="M19.273,66.639c0.314,0.241,0.64,0.483,0.972,0.73c0.448,0.334,0.917,0.684,1.383,1.052
			c3.164-1.243,4.644-3.9,4.644-6.42c0-1.301-0.4-2.548-1.171-3.648c-0.027-0.047-0.058-0.094-0.092-0.138h0
			c-0.028-0.039-0.059-0.074-0.087-0.112c-0.056-0.072-0.111-0.145-0.169-0.214c-0.026-0.03-0.054-0.059-0.08-0.088
			c-0.062-0.07-0.123-0.14-0.188-0.207c-0.028-0.029-0.058-0.056-0.087-0.084c-0.066-0.065-0.131-0.131-0.2-0.193
			c-0.03-0.027-0.062-0.053-0.093-0.079c-0.07-0.062-0.141-0.123-0.214-0.182c-0.031-0.024-0.064-0.047-0.096-0.071
			c-0.076-0.058-0.151-0.116-0.229-0.17c-0.034-0.024-0.07-0.046-0.105-0.069c-0.078-0.052-0.156-0.105-0.237-0.154
			c-0.039-0.023-0.079-0.045-0.118-0.067c-0.08-0.046-0.159-0.094-0.242-0.137c-0.04-0.021-0.082-0.041-0.122-0.061
			c-0.083-0.042-0.167-0.085-0.252-0.125c-0.04-0.019-0.081-0.034-0.121-0.052c-0.089-0.039-0.177-0.078-0.268-0.114
			c-0.035-0.014-0.072-0.026-0.107-0.039c-0.097-0.037-0.195-0.073-0.294-0.106c-0.035-0.012-0.072-0.021-0.107-0.032
			c-0.102-0.032-0.204-0.063-0.308-0.092c-0.024-0.006-0.049-0.011-0.073-0.017c-0.678-0.176-1.399-0.271-2.144-0.271
			c-3.041,0-6.272,2.198-6.272,6.271c0,0.464,0.046,0.903,0.128,1.323c0.001,0.008,0.002,0.017,0.003,0.025
			c0.041,0.201,0.091,0.396,0.148,0.587c0.004,0.012,0.006,0.025,0.01,0.038c0.062,0.202,0.132,0.398,0.211,0.59l0,0.002
			c0.318,0.772,0.769,1.467,1.3,2.105v0c0.858,1.029,1.929,1.911,3,2.728c0.273,0.208,0.546,0.414,0.815,0.615
			c0.006,0.004,0.012,0.009,0.018,0.013c0.265,0.198,0.527,0.395,0.786,0.592c2.041,1.555,3.794,3.115,3.794,5.333
			c0,2.734-1.805,4.503-4.597,4.503h0c-0.044,0-0.089-0.007-0.133-0.009c-0.148-0.005-0.296-0.01-0.447-0.029
			c-1.371-0.176-2.827-0.945-3.844-2.062l-0.1-0.096c-0.226-0.188-0.507-0.292-0.791-0.292c-0.057,0-0.113,0.004-0.167,0.012
			c-0.384,0.057-0.722,0.301-0.888,0.654c-0.033,0.068-0.055,0.139-0.073,0.211c-0.089,0.362,0.003,0.756,0.291,1.1
			c0.294,0.312,0.606,0.6,0.929,0.865c0.027,0.021,0.054,0.045,0.081,0.066c0.004,0.004,0.007,0.006,0.011,0.009
			c1.528,1.218,3.341,1.899,5.132,1.899c0.844,0,1.632-0.129,2.356-0.357c2.774-0.876,4.568-3.318,4.568-6.537
			c0-0.217-0.012-0.428-0.032-0.633c-0.005-0.058-0.015-0.111-0.022-0.168c-0.018-0.146-0.039-0.291-0.066-0.434
			c-0.013-0.067-0.029-0.134-0.045-0.201c-0.029-0.126-0.061-0.251-0.097-0.374c-0.021-0.067-0.042-0.136-0.064-0.202
			c-0.04-0.119-0.083-0.236-0.129-0.352c-0.025-0.064-0.051-0.128-0.078-0.19c-0.052-0.119-0.108-0.235-0.166-0.351
			c-0.027-0.055-0.054-0.109-0.083-0.164c-0.072-0.133-0.149-0.264-0.229-0.393c-0.02-0.032-0.037-0.064-0.057-0.096
			c-0.104-0.162-0.213-0.32-0.328-0.475c-0.02-0.025-0.041-0.051-0.061-0.076c-0.096-0.126-0.193-0.25-0.295-0.371
			c-0.042-0.05-0.086-0.098-0.129-0.147c-0.083-0.095-0.167-0.19-0.254-0.283c-0.051-0.054-0.104-0.108-0.155-0.162
			c-0.083-0.085-0.167-0.169-0.251-0.252c-0.056-0.055-0.113-0.109-0.17-0.163c-0.085-0.081-0.172-0.16-0.259-0.239
			c-0.058-0.053-0.116-0.105-0.175-0.158c-0.09-0.079-0.182-0.157-0.274-0.235c-0.058-0.049-0.114-0.098-0.172-0.146
			c-0.104-0.086-0.209-0.171-0.314-0.255c-0.095-0.076-0.189-0.151-0.284-0.225c-0.434-0.34-0.873-0.668-1.303-0.988
			c-0.857-0.637-1.694-1.263-2.422-1.922c-0.015-0.013-0.029-0.025-0.043-0.038c-0.079-0.072-0.155-0.144-0.23-0.217
			c-0.036-0.034-0.071-0.068-0.106-0.103c-0.069-0.067-0.136-0.135-0.202-0.203c-0.041-0.042-0.079-0.084-0.118-0.126
			c-0.061-0.065-0.122-0.13-0.18-0.196c-0.087-0.099-0.17-0.199-0.251-0.3c-0.042-0.054-0.082-0.109-0.123-0.164
			c-0.047-0.062-0.093-0.125-0.137-0.188c-0.039-0.055-0.075-0.111-0.111-0.167c-0.043-0.067-0.085-0.135-0.125-0.203
			c-0.031-0.053-0.063-0.106-0.093-0.16c-0.047-0.086-0.09-0.173-0.131-0.261c-0.018-0.038-0.039-0.076-0.056-0.114
			c-0.055-0.124-0.104-0.25-0.147-0.378c-0.016-0.045-0.028-0.091-0.042-0.137c-0.028-0.09-0.054-0.182-0.076-0.275
			c-0.012-0.052-0.023-0.104-0.034-0.157c-0.019-0.094-0.034-0.189-0.047-0.286c-0.006-0.049-0.014-0.098-0.019-0.148
			c-0.013-0.138-0.022-0.278-0.022-0.422c0-0.008-0.001-0.015-0.001-0.015c0-2.238,1.668-3.919,3.88-3.919
			c0.086,0,0.2,0.003,0.333,0.01c0.898,0.051,2.744,0.341,3.798,1.811l0.01,0.013l0.004,0.007l0.004,0.006
			c0.004,0.006,0.009,0.011,0.013,0.017l-0.001,0.001c0.507,0.717,0.777,1.52,0.777,2.326
			C23.943,64.673,21.755,66.163,19.273,66.639z"/>
	</g>
	<g>
		<path fill="#C227B9" d="M55.038,96.121H44.008c-0.285,0-0.475,0.192-0.475,0.477v24.012c0,0.254,0.193,0.447,0.445,0.447
			c0.25,0,0.444-0.197,0.444-0.447v-11.576h8.354c0.251,0,0.444-0.193,0.444-0.447c0-0.249-0.193-0.441-0.444-0.441h-8.354V97.01
			h10.615c0.252,0,0.444-0.192,0.444-0.442C55.482,96.313,55.29,96.121,55.038,96.121z"/>
		<path fill="#C227B9" d="M72.521,120.168H61.965V96.567c0-0.254-0.193-0.446-0.444-0.446c-0.252,0-0.442,0.192-0.442,0.446v24.042
			c0,0.268,0.177,0.447,0.442,0.447h11c0.252,0,0.442-0.193,0.442-0.447C72.963,120.359,72.773,120.168,72.521,120.168z"/>
		<path fill="#C227B9" d="M91.383,95.968c-0.287-0.092-0.9-0.153-2.218-0.153c-8.7,0-12.658,7.452-12.691,12.741
			c-0.018,3.621,1.313,7.05,3.652,9.405c2.215,2.224,5.273,3.402,8.846,3.402h0.062c3.612-0.018,6.898-1.35,9.251-3.753
			c2.415-2.466,3.709-5.858,3.647-9.554C101.793,101.498,97.75,96.865,91.383,95.968z M82.834,104.252
			c0,3.971,2.642,8.248,8.439,8.248c0.251,0,0.451-0.191,0.451-0.441s-0.199-0.442-0.451-0.442c-5.188,0-7.551-3.817-7.551-7.364
			c0-3.433,2.034-7.084,6.535-7.51c6.415,0.456,10.648,4.904,10.787,11.323c0.063,3.464-1.139,6.634-3.378,8.923
			c-2.185,2.238-5.252,3.477-8.694,3.49c-3.314,0-6.153-1.091-8.205-3.152c-2.185-2.198-3.426-5.391-3.406-8.771
			c0.026-4.365,2.995-10.446,9.459-11.642C84.349,98.341,82.834,101.043,82.834,104.252z"/>
		<path fill="#C227B9" d="M115.336,109.537c2.531-1.033,4.083-3.508,4.083-6.555c0-4.361-3.101-6.861-8.501-6.861h-2.942
			c-0.251,0-0.444,0.192-0.444,0.446v24.042c0,0.254,0.193,0.447,0.444,0.447c0.252,0,0.442-0.193,0.442-0.447v-23.6h2.5
			c4.838,0,7.611,2.211,7.611,6.064c0,2.763-1.574,5.009-4.106,5.857c-0.149,0.053-0.265,0.172-0.3,0.32
			c-0.023,0.096-0.033,0.28,0.153,0.469l10.874,11.182c0.229,0.232,0.641,0.141,0.76-0.145c0.064-0.166,0.027-0.346-0.1-0.473
			L115.336,109.537z"/>
		<path fill="#C227B9" d="M131.539,96.121c-0.249,0-0.443,0.197-0.443,0.446v24.042c0,0.25,0.194,0.447,0.443,0.447
			c0.252,0,0.445-0.193,0.445-0.447V96.567C131.984,96.313,131.791,96.121,131.539,96.121z"/>
		<path fill="#C227B9" d="M145.882,108.07c-2.563-1.91-4.982-3.709-4.982-6.734c0-2.627,1.966-4.606,4.575-4.606
			c0.744,0,3.286,0.153,4.703,2.128c0.196,0.236,0.635,0.171,0.764-0.105c0.074-0.157,0.048-0.336-0.059-0.469
			c-1.106-1.523-3.104-2.438-5.347-2.438c-2.677,0-5.525,1.935-5.525,5.525c0,3.432,2.706,5.455,5.319,7.412
			c2.492,1.865,4.843,3.625,4.843,6.467c0,3.109-2.124,5.193-5.287,5.193c-1.712,0-3.647-0.911-4.96-2.352
			c-0.25-0.197-0.615-0.127-0.734,0.131c-0.074,0.162-0.043,0.347,0.092,0.508c1.559,1.651,3.6,2.602,5.603,2.602
			c3.636,0,6.176-2.526,6.176-6.143C151.062,111.923,148.428,109.961,145.882,108.07z"/>
		<path fill="#C227B9" d="M176.021,96.121H156.75c-0.251,0-0.443,0.192-0.443,0.446c0,0.25,0.192,0.442,0.443,0.442h9.193v23.6
			c0,0.254,0.192,0.447,0.444,0.447c0.251,0,0.442-0.193,0.442-0.447v-23.6h9.191c0.252,0,0.445-0.192,0.445-0.442
			C176.467,96.313,176.273,96.121,176.021,96.121z"/>
	</g>
</g>
</svg>
