<?xml version="1.0" encoding="utf-8"?>
<!-- Generator: Adobe Illustrator 16.0.0, SVG Export Plug-In . SVG Version: 6.00 Build 0)  -->
<!DOCTYPE svg PUBLIC "-//W3C//DTD SVG 1.1//EN" "http://www.w3.org/Graphics/SVG/1.1/DTD/svg11.dtd">
<svg version="1.1" id="Layer_1" xmlns="http://www.w3.org/2000/svg" xmlns:xlink="http://www.w3.org/1999/xlink" x="0px" y="0px"
	 width="50px" height="60px" viewBox="0 0 50 60" enable-background="new 0 0 50 60" xml:space="preserve">
<path fill="#C227B9" d="M25,1.5c11.782,0,20,9.496,20,21.209C45,37.456,25,58.5,25,58.5S5,37.456,5,22.709
	C5,10.996,13.217,1.5,25,1.5z"/>
<g>
	<polygon fill="#FFFFFF" points="25,29 25,29 25,29 	"/>
</g>
<path fill="#FFFFFF" d="M23.459,25.561c-3.519-0.253-6.581-2.402-7.459-5.905c-0.789-3.15,0.371-6.744,3.115-8.576
	c0.848-0.567,1.81-0.943,2.807-1.142c0.761-0.059,1.47,0.617,1.059,1.398c-0.346,0.658-1.446,0.678-2.051,0.966
	c-0.786,0.374-1.475,0.932-2.002,1.624c-2.223,2.91-1.337,7.435,2.029,9.035C21.628,23.968,22.521,24.806,23.459,25.561z
	 M24.685,23.329c-1.144-0.958-2.237-2.149-2.322-3.717c-0.096-1.779,1.194-3.329,2.995-3.443c1.845-0.118,3.778,0.853,4.247,2.731
	c0.623,2.5-1.607,4.19-3.794,4.61c0.419,0.32,0.843,0.631,1.263,0.948c0.234,0.177,0.466,0.354,0.696,0.535
	c0.247-0.098,0.489-0.208,0.726-0.332c0.906-0.479,1.696-1.17,2.255-2.032c1.073-1.66,1.181-3.816,0.206-5.547
	c-1.651-2.925-5.995-3.803-8.643-1.716c-1.552,1.223-2.162,3.266-1.788,5.177C21,22.561,22.382,24,23.97,25.254
	c1.581,1.25,3.652,2.382,4.58,4.25c0.763,1.539,0.337,3.641-1.105,4.632c-1.595,1.097-3.74,0.728-5.227-0.362
	c-0.604-0.443-1.266-1.482-2.124-0.854c-1.137,0.832,0.318,1.621,0.729,2.238c3.319,2.642,8.866,1.844,9.881-2.723
	C31.702,27.936,27.598,25.768,24.685,23.329z"/>
</svg>
