<?xml version="1.0" encoding="utf-8"?>
<!-- Generator: Adobe Illustrator 16.0.0, SVG Export Plug-In . SVG Version: 6.00 Build 0)  -->
<!DOCTYPE svg PUBLIC "-//W3C//DTD SVG 1.1//EN" "http://www.w3.org/Graphics/SVG/1.1/DTD/svg11.dtd">
<svg version="1.1" id="Layer_1" xmlns="http://www.w3.org/2000/svg" xmlns:xlink="http://www.w3.org/1999/xlink" x="0px" y="0px"
	 width="130px" height="130px" viewBox="0 0 130 130" enable-background="new 0 0 130 130" xml:space="preserve">
<g>
	<g>
		<path fill="#2D2D2D" d="M65.757,5.314C65.553,5.111,65.283,5,64.996,5s-0.556,0.111-0.759,0.314
			c-2.313,2.314-3.585,5.388-3.584,8.657c0.002,3.267,1.277,6.339,3.593,8.653c0.406,0.406,1.113,0.406,1.518,0
			c2.313-2.314,3.586-5.388,3.582-8.655C69.346,10.702,68.07,7.628,65.757,5.314z M65.137,20.089l-0.133,0.173l-0.132-0.172
			c-1.354-1.768-2.07-3.883-2.071-6.121c-0.001-2.238,0.712-4.355,2.064-6.12l0.132-0.173l0.132,0.173
			c1.354,1.764,2.069,3.881,2.07,6.121C67.201,16.207,66.487,18.323,65.137,20.089z"/>
		<path fill="#2D2D2D" d="M65.757,107.387c-0.204-0.203-0.474-0.314-0.761-0.314s-0.556,0.111-0.759,0.314
			c-2.313,2.315-3.585,5.389-3.584,8.656c0.002,3.268,1.277,6.341,3.593,8.653c0.406,0.405,1.113,0.405,1.518,0
			c2.313-2.313,3.586-5.388,3.582-8.655C69.346,112.774,68.07,109.7,65.757,107.387z M65.137,122.161l-0.133,0.174l-0.132-0.172
			c-1.354-1.767-2.07-3.884-2.071-6.122c-0.001-2.237,0.712-4.355,2.064-6.119l0.132-0.174l0.132,0.174
			c1.354,1.764,2.069,3.882,2.07,6.121C67.201,118.279,66.487,120.396,65.137,122.161z"/>
	</g>
	<g>
		<path fill="#2D2D2D" d="M124.688,65.755c0.201-0.202,0.312-0.472,0.312-0.759c0-0.288-0.111-0.557-0.314-0.76
			c-2.313-2.312-5.388-3.586-8.656-3.583c-3.266,0.001-6.34,1.277-8.653,3.592c-0.405,0.407-0.404,1.113,0.001,1.519
			c2.312,2.312,5.387,3.584,8.655,3.583C119.298,69.346,122.372,68.07,124.688,65.755z M109.911,65.136l-0.172-0.132l0.17-0.131
			c1.768-1.356,3.885-2.071,6.123-2.073c2.238-0.001,4.354,0.712,6.12,2.065l0.172,0.131l-0.172,0.133
			c-1.767,1.353-3.882,2.069-6.123,2.071C113.794,67.201,111.677,66.489,109.911,65.136z"/>
		<path fill="#2D2D2D" d="M22.614,65.755c0.203-0.202,0.314-0.472,0.314-0.759c0-0.288-0.111-0.557-0.314-0.76
			c-2.314-2.312-5.388-3.584-8.656-3.583c-3.268,0.001-6.34,1.277-8.654,3.592c-0.406,0.407-0.405,1.113,0,1.519
			c2.314,2.312,5.388,3.584,8.655,3.583C17.227,69.346,20.3,68.07,22.614,65.755z M7.839,65.136l-0.173-0.132l0.172-0.131
			c1.767-1.356,3.883-2.071,6.122-2.073c2.238-0.001,4.354,0.712,6.12,2.065l0.172,0.131l-0.172,0.133
			c-1.765,1.353-3.882,2.069-6.121,2.071C11.721,67.201,9.605,66.489,7.839,65.136z"/>
	</g>
</g>
</svg>
