<?xml version="1.0" encoding="utf-8"?>
<!-- Generator: Adobe Illustrator 16.0.0, SVG Export Plug-In . SVG Version: 6.00 Build 0)  -->
<!DOCTYPE svg PUBLIC "-//W3C//DTD SVG 1.1//EN" "http://www.w3.org/Graphics/SVG/1.1/DTD/svg11.dtd">
<svg version="1.1" id="Layer_1" xmlns="http://www.w3.org/2000/svg" xmlns:xlink="http://www.w3.org/1999/xlink" x="0px" y="0px"
	 width="90px" height="90px" viewBox="0 0 90 90" enable-background="new 0 0 90 90" xml:space="preserve">
<g>
	<path fill="#C227B9" d="M45.477,6.913c-0.128-0.128-0.299-0.198-0.479-0.198c-0.181,0-0.351,0.07-0.479,0.198
		c-1.459,1.46-2.262,3.399-2.261,5.462c0.001,2.062,0.806,4,2.267,5.46c0.256,0.256,0.703,0.256,0.958,0
		c1.459-1.46,2.262-3.399,2.26-5.461C47.742,10.312,46.938,8.373,45.477,6.913z M45.086,16.235l-0.083,0.109l-0.083-0.108
		c-0.854-1.115-1.306-2.45-1.307-3.862c-0.001-1.412,0.449-2.748,1.302-3.861l0.083-0.109l0.083,0.109
		c0.854,1.113,1.306,2.449,1.307,3.862C46.389,13.786,45.938,15.121,45.086,16.235z"/>
	<path fill="#C227B9" d="M45.477,71.316c-0.128-0.128-0.299-0.198-0.479-0.198c-0.181,0-0.351,0.07-0.479,0.198
		c-1.459,1.461-2.262,3.4-2.261,5.462s0.806,4.001,2.267,5.46c0.256,0.256,0.703,0.256,0.958,0c1.459-1.46,2.262-3.399,2.26-5.461
		C47.742,74.716,46.938,72.776,45.477,71.316z M45.086,80.639l-0.083,0.109l-0.083-0.108c-0.854-1.114-1.306-2.45-1.307-3.862
		c-0.001-1.412,0.449-2.748,1.302-3.861l0.083-0.109l0.083,0.109c0.854,1.113,1.306,2.449,1.307,3.862
		C46.389,78.189,45.938,79.525,45.086,80.639z"/>
</g>
<g>
	<path fill="#C227B9" d="M82.66,45.049c0.127-0.127,0.197-0.298,0.197-0.479c0-0.182-0.07-0.352-0.198-0.479
		c-1.46-1.459-3.399-2.263-5.462-2.261c-2.061,0.001-4,0.806-5.46,2.267c-0.256,0.257-0.255,0.702,0.001,0.958
		c1.459,1.459,3.398,2.262,5.461,2.261C79.26,47.314,81.199,46.51,82.66,45.049z M73.337,44.658l-0.108-0.083l0.107-0.083
		c1.115-0.855,2.451-1.307,3.863-1.308s2.747,0.449,3.861,1.303l0.108,0.083l-0.108,0.084c-1.114,0.854-2.449,1.306-3.863,1.307
		C75.787,45.961,74.451,45.512,73.337,44.658z"/>
	<path fill="#C227B9" d="M18.256,45.049c0.128-0.127,0.198-0.298,0.198-0.479c0-0.182-0.07-0.352-0.198-0.479
		c-1.46-1.459-3.399-2.262-5.461-2.261c-2.062,0.001-4,0.806-5.46,2.267c-0.256,0.257-0.255,0.702,0,0.958
		c1.46,1.459,3.399,2.262,5.461,2.261S16.796,46.51,18.256,45.049z M8.934,44.658l-0.109-0.083l0.108-0.083
		c1.115-0.855,2.45-1.307,3.862-1.308s2.748,0.449,3.861,1.303l0.109,0.083l-0.109,0.084c-1.114,0.854-2.449,1.306-3.862,1.307
		C11.383,45.961,10.048,45.512,8.934,44.658z"/>
</g>
</svg>
