<?xml version="1.0" encoding="utf-8"?>
<!-- Generator: Adobe Illustrator 16.0.0, SVG Export Plug-In . SVG Version: 6.00 Build 0)  -->
<!DOCTYPE svg PUBLIC "-//W3C//DTD SVG 1.1//EN" "http://www.w3.org/Graphics/SVG/1.1/DTD/svg11.dtd">
<svg version="1.1" id="Layer_1" xmlns="http://www.w3.org/2000/svg" xmlns:xlink="http://www.w3.org/1999/xlink" x="0px" y="0px"
	 width="90px" height="90px" viewBox="0 0 90 90" enable-background="new 0 0 90 90" xml:space="preserve">
<g>
	<path fill="#C227B9" d="M70.396,10.977c-0.234-0.137-0.618-0.299-1.104-0.299c-0.783,0-1.592,0.41-2.401,1.22l-5.416,5.416
		c-3.914,3.914-4.46,8.868-1.327,12.048l0.041,0.04c1.348,1.327,3.045,2.03,4.91,2.03c2.438,0,4.973-1.193,7.137-3.357l5.416-5.416
		c1.625-1.625,1.275-2.894,0.922-3.506c-0.724-1.249-2.74-2.025-5.266-2.025c-0.264,0-0.533,0.01-0.801,0.027l-0.119,0.008
		l0.007-0.12C72.581,14.212,71.777,11.774,70.396,10.977z M73.302,18.494c1.982,0,3.627,0.538,4.092,1.339
		c0.276,0.479,0.033,1.124-0.704,1.862l-5.416,5.415c-1.895,1.894-4.086,2.937-6.17,2.937c-1.521,0-2.895-0.562-3.971-1.629
		c-2.588-2.614-2.051-6.784,1.307-10.142l5.416-5.415c0.739-0.74,1.383-0.981,1.861-0.706c0.951,0.553,1.508,2.749,1.292,5.108
		l-0.007,0.079l-0.077,0.015c-0.304,0.059-0.604,0.127-0.894,0.205c-4.123,1.104-6.487,3.919-6.487,7.722
		c0,0.188,0.084,0.384,0.214,0.496c0.135,0.147,0.316,0.226,0.508,0.226c3.803,0,6.617-2.364,7.723-6.488
		c0.077-0.288,0.146-0.589,0.204-0.893l0.015-0.077l0.078-0.008C72.625,18.51,72.967,18.494,73.302,18.494z M70.768,18.78
		l-0.041,0.169c-0.018,0.072-0.035,0.145-0.055,0.216c-0.498,1.859-1.889,5.037-5.608,5.438l-0.13,0.014l0.014-0.13
		c0.4-3.719,3.578-5.11,5.437-5.608c0.072-0.019,0.145-0.038,0.216-0.056L70.768,18.78z"/>
	<path fill="#C227B9" d="M73.306,72.009c2.526,0,4.546-0.776,5.269-2.025c0.354-0.612,0.703-1.881-0.922-3.505l-5.416-5.416
		c-2.164-2.165-4.699-3.357-7.137-3.357c-1.865,0-3.562,0.702-4.911,2.03l-0.04,0.04c-3.133,3.179-2.588,8.133,1.327,12.048
		l5.416,5.415c0.81,0.811,1.618,1.221,2.401,1.221c0.485,0,0.869-0.162,1.104-0.299c1.381-0.799,2.185-3.236,1.999-6.066
		l-0.007-0.119l0.119,0.008C72.774,72,73.043,72.009,73.306,72.009z M72.285,70.596l-0.078-0.008l-0.015-0.077
		c-0.059-0.304-0.128-0.604-0.204-0.893c-1.105-4.123-3.92-6.488-7.723-6.488c-0.189,0-0.384,0.085-0.496,0.215
		c-0.146,0.134-0.226,0.315-0.226,0.507c0,3.803,2.364,6.618,6.487,7.723c0.29,0.078,0.59,0.146,0.894,0.205l0.077,0.015
		l0.007,0.079c0.216,2.358-0.341,4.555-1.292,5.106c-0.129,0.075-0.27,0.112-0.422,0.112c-0.414,0-0.898-0.275-1.439-0.816
		l-5.416-5.416c-3.357-3.357-3.895-7.527-1.308-10.141c1.077-1.066,2.45-1.63,3.972-1.63c2.084,0,4.275,1.043,6.17,2.937
		l5.416,5.416c0.737,0.738,0.98,1.382,0.705,1.861c-0.466,0.801-2.109,1.34-4.09,1.34l0,0
		C72.969,70.643,72.626,70.627,72.285,70.596z M70.77,70.353l-0.168-0.039c-0.064-0.016-0.13-0.032-0.193-0.049
		c-1.883-0.505-5.061-1.896-5.461-5.614l-0.014-0.131l0.129,0.015c3.721,0.399,5.111,3.577,5.609,5.437
		c0.02,0.071,0.037,0.144,0.055,0.215L70.77,70.353z"/>
	<path fill="#C227B9" d="M19.566,78.16c0.235,0.137,0.618,0.299,1.103,0.299c0.785,0,1.593-0.41,2.402-1.221l5.416-5.415
		c3.915-3.915,4.46-8.869,1.327-12.048l-0.04-0.041c-1.348-1.327-3.046-2.029-4.911-2.029c-2.438,0-4.972,1.192-7.137,3.357
		l-5.416,5.415c-1.625,1.626-1.275,2.894-0.921,3.506c0.723,1.249,2.74,2.025,5.265,2.025c0.264,0,0.534-0.009,0.801-0.026
		l0.12-0.008l-0.008,0.119C17.382,74.924,18.186,77.361,19.566,78.16z M16.661,70.642c-1.981,0-3.625-0.538-4.091-1.339
		c-0.277-0.479-0.034-1.123,0.705-1.861l5.416-5.416c1.894-1.894,4.084-2.937,6.169-2.937c1.521,0,2.895,0.563,3.971,1.63
		c2.588,2.613,2.051,6.783-1.307,10.141l-5.416,5.416c-0.541,0.541-1.026,0.816-1.44,0.816l0,0c-0.151,0-0.293-0.037-0.421-0.111
		c-0.952-0.553-1.508-2.748-1.293-5.107l0.007-0.079l0.077-0.015c0.311-0.061,0.611-0.129,0.893-0.205
		c4.123-1.104,6.488-3.92,6.488-7.723c0-0.188-0.084-0.383-0.215-0.496c-0.134-0.146-0.315-0.226-0.507-0.226
		c-3.802,0-6.617,2.365-7.722,6.488c-0.076,0.285-0.146,0.585-0.205,0.893l-0.015,0.077l-0.079,0.008
		C17.338,70.627,16.996,70.642,16.661,70.642z M19.196,70.355l0.041-0.168c0.018-0.073,0.036-0.145,0.055-0.217
		c0.498-1.859,1.889-5.037,5.608-5.437l0.129-0.015l-0.014,0.13c-0.399,3.72-3.578,5.11-5.437,5.608L19.196,70.355z"/>
	<path fill="#C227B9" d="M16.658,17.127c-2.527,0-4.546,0.776-5.268,2.025c-0.354,0.611-0.704,1.881,0.921,3.506l5.416,5.416
		c2.165,2.164,4.7,3.357,7.137,3.357c1.865,0,3.563-0.703,4.911-2.03l0.04-0.041c3.133-3.179,2.587-8.133-1.328-12.047l-5.416-5.416
		c-0.81-0.81-1.618-1.22-2.402-1.22c-0.485,0-0.868,0.162-1.104,0.299c-1.381,0.799-2.184,3.236-1.999,6.065l0.007,0.119
		l-0.119-0.008C17.189,17.136,16.921,17.127,16.658,17.127z M17.677,18.54l0.079,0.008l0.015,0.077
		c0.059,0.307,0.128,0.607,0.205,0.893c1.105,4.124,3.919,6.488,7.722,6.488c0.189,0,0.384-0.084,0.497-0.214
		c0.147-0.135,0.226-0.316,0.226-0.508c0-3.803-2.365-6.617-6.488-7.722c-0.289-0.078-0.589-0.146-0.893-0.205l-0.077-0.015
		l-0.007-0.079c-0.214-2.359,0.341-4.555,1.293-5.107c0.479-0.276,1.123-0.034,1.861,0.705l5.416,5.415
		c3.357,3.357,3.895,7.729,1.308,10.342c-1.078,1.066-2.45,1.831-3.971,1.831H24.86c-2.085,0-4.276-1.244-6.169-3.138l-5.416-5.517
		c-0.738-0.738-0.981-1.432-0.705-1.911c0.465-0.802,2.109-1.365,4.09-1.365C16.995,18.519,17.337,18.51,17.677,18.54z
		 M19.194,18.781l0.169,0.041c0.072,0.018,0.145,0.037,0.216,0.056c1.859,0.498,5.037,1.89,5.437,5.608l0.014,0.13L24.9,24.602
		c-3.72-0.399-5.111-3.577-5.609-5.437c-0.019-0.071-0.038-0.144-0.055-0.215L19.194,18.781z"/>
</g>
</svg>
