<?xml version="1.0" encoding="utf-8"?>
<!-- Generator: Adobe Illustrator 16.0.0, SVG Export Plug-In . SVG Version: 6.00 Build 0)  -->
<!DOCTYPE svg PUBLIC "-//W3C//DTD SVG 1.1//EN" "http://www.w3.org/Graphics/SVG/1.1/DTD/svg11.dtd">
<svg version="1.1" id="Layer_1" xmlns="http://www.w3.org/2000/svg" xmlns:xlink="http://www.w3.org/1999/xlink" x="0px" y="0px"
	 width="130px" height="130px" viewBox="0 0 130 130" enable-background="new 0 0 130 130" xml:space="preserve">
<g>
	<path fill="#2D2D2D" d="M105.251,11.754c-0.372-0.217-0.98-0.474-1.749-0.474c-1.241,0-2.523,0.65-3.806,1.933l-8.584,8.584
		c-6.204,6.203-7.068,14.055-2.104,19.094l0.064,0.063c2.137,2.104,4.826,3.218,7.782,3.218c3.863,0,7.882-1.891,11.312-5.321
		l8.583-8.583c2.576-2.576,2.021-4.586,1.462-5.557c-1.147-1.979-4.344-3.21-8.346-3.21c-0.418,0-0.845,0.016-1.27,0.043
		l-0.188,0.012l0.011-0.19C108.713,16.882,107.439,13.019,105.251,11.754z M109.855,23.669c3.142,0,5.748,0.853,6.484,2.122
		c0.438,0.76,0.053,1.781-1.115,2.951l-8.584,8.583c-3.003,3.001-6.476,4.654-9.778,4.654c-2.412,0-4.588-0.891-6.294-2.582
		c-4.102-4.143-3.25-10.752,2.071-16.073l8.584-8.582c1.172-1.173,2.191-1.556,2.95-1.119c1.507,0.876,2.39,4.357,2.047,8.096
		l-0.011,0.125l-0.122,0.023c-0.481,0.093-0.956,0.201-1.416,0.325c-6.534,1.75-10.281,6.211-10.281,12.238
		c0,0.299,0.133,0.608,0.339,0.787c0.213,0.233,0.501,0.357,0.805,0.357c6.026,0,10.487-3.747,12.239-10.283
		c0.122-0.457,0.23-0.934,0.323-1.415l0.023-0.123l0.124-0.012C108.782,23.694,109.324,23.669,109.855,23.669z M105.839,24.123
		l-0.065,0.268c-0.027,0.115-0.056,0.229-0.086,0.342c-0.79,2.947-2.994,7.983-8.889,8.618l-0.206,0.021l0.021-0.206
		c0.635-5.894,5.671-8.1,8.616-8.889c0.114-0.03,0.229-0.061,0.342-0.088L105.839,24.123z"/>
	<path fill="#2D2D2D" d="M109.861,108.483c4.004,0,7.205-1.23,8.351-3.21c0.56-0.97,1.114-2.98-1.462-5.555l-8.583-8.584
		c-3.43-3.431-7.448-5.321-11.312-5.321c-2.956,0-5.646,1.113-7.783,3.218l-0.063,0.063c-4.965,5.038-4.102,12.89,2.104,19.095
		l8.584,8.582c1.282,1.285,2.564,1.936,3.806,1.936c0.769,0,1.377-0.258,1.749-0.474c2.188-1.267,3.462-5.13,3.168-9.615
		l-0.011-0.188l0.188,0.013C109.02,108.47,109.445,108.483,109.861,108.483z M108.244,106.244l-0.124-0.013l-0.023-0.122
		c-0.093-0.481-0.202-0.958-0.323-1.414c-1.752-6.535-6.213-10.283-12.239-10.283c-0.301,0-0.608,0.134-0.786,0.34
		c-0.232,0.212-0.357,0.5-0.357,0.804c0,6.026,3.747,10.489,10.281,12.239c0.46,0.124,0.935,0.232,1.416,0.325l0.122,0.023
		l0.011,0.125c0.343,3.738-0.54,7.219-2.047,8.093c-0.205,0.119-0.428,0.179-0.669,0.179c-0.656,0-1.424-0.437-2.281-1.294
		l-8.584-8.584c-5.321-5.321-6.173-11.93-2.072-16.072c1.707-1.689,3.883-2.583,6.295-2.583c3.303,0,6.775,1.653,9.778,4.654
		l8.584,8.584c1.168,1.17,1.554,2.189,1.117,2.95c-0.738,1.269-3.343,2.123-6.481,2.123l0,0
		C109.327,106.318,108.784,106.294,108.244,106.244z M105.842,105.858l-0.266-0.062c-0.103-0.024-0.206-0.051-0.307-0.077
		c-2.984-0.801-8.021-3.005-8.655-8.898l-0.021-0.207l0.204,0.023c5.896,0.633,8.101,5.669,8.891,8.616
		c0.03,0.112,0.059,0.228,0.086,0.34L105.842,105.858z"/>
	<path fill="#2D2D2D" d="M24.69,118.233c0.373,0.216,0.98,0.474,1.749,0.474c1.244,0,2.524-0.65,3.807-1.936l8.583-8.582
		c6.204-6.205,7.069-14.057,2.104-19.095l-0.063-0.064c-2.136-2.104-4.827-3.217-7.783-3.217c-3.863,0-7.88,1.891-11.312,5.321
		l-8.583,8.583c-2.575,2.576-2.021,4.586-1.46,5.556c1.146,1.979,4.343,3.21,8.344,3.21c0.419,0,0.846-0.014,1.27-0.041l0.189-0.013
		l-0.012,0.188C21.229,113.104,22.503,116.967,24.69,118.233z M20.085,106.316c-3.141,0-5.746-0.853-6.484-2.121
		c-0.439-0.761-0.053-1.78,1.118-2.95l8.583-8.584c3.001-3.001,6.474-4.654,9.778-4.654c2.411,0,4.587,0.894,6.294,2.583
		c4.103,4.143,3.25,10.751-2.072,16.072l-8.583,8.584c-0.857,0.857-1.626,1.294-2.283,1.294l0,0c-0.24,0-0.464-0.06-0.667-0.177
		c-1.509-0.876-2.39-4.355-2.049-8.095l0.012-0.125l0.122-0.023c0.492-0.096,0.968-0.204,1.416-0.325
		c6.535-1.75,10.283-6.213,10.283-12.239c0-0.299-0.134-0.607-0.34-0.786c-0.212-0.232-0.5-0.357-0.804-0.357
		c-6.026,0-10.488,3.748-12.239,10.283c-0.121,0.451-0.231,0.927-0.324,1.414l-0.024,0.122l-0.125,0.013
		C21.159,106.294,20.617,106.316,20.085,106.316z M24.103,105.863l0.064-0.266c0.028-0.116,0.057-0.229,0.087-0.344
		c0.79-2.947,2.994-7.983,8.889-8.616l0.205-0.023l-0.021,0.206c-0.633,5.895-5.67,8.099-8.616,8.889L24.103,105.863z"/>
	<path fill="#2D2D2D" d="M20.081,21.502c-4.005,0-7.205,1.23-8.349,3.21c-0.561,0.969-1.115,2.981,1.46,5.557l8.583,8.583
		c3.432,3.43,7.449,5.321,11.312,5.321c2.956,0,5.647-1.114,7.784-3.218l0.063-0.065c4.965-5.038,4.1-12.89-2.104-19.093
		l-8.583-8.584c-1.283-1.283-2.563-1.933-3.807-1.933c-0.769,0-1.376,0.257-1.749,0.474c-2.188,1.266-3.461,5.129-3.167,9.613
		l0.012,0.189l-0.189-0.012C20.923,21.516,20.498,21.502,20.081,21.502z M21.696,23.742l0.125,0.012l0.024,0.123
		c0.093,0.486,0.204,0.962,0.324,1.415c1.751,6.536,6.212,10.283,12.238,10.283c0.3,0,0.609-0.133,0.787-0.339
		c0.233-0.214,0.358-0.501,0.358-0.805c0-6.027-3.749-10.487-10.283-12.238c-0.458-0.124-0.934-0.232-1.416-0.325l-0.122-0.023
		l-0.012-0.125c-0.34-3.739,0.541-7.219,2.049-8.095c0.759-0.438,1.779-0.054,2.95,1.118l8.583,8.582
		c5.321,5.321,6.173,12.249,2.073,16.391c-1.708,1.69-3.883,2.902-6.293,2.902H33.08c-3.304,0-6.777-1.972-9.778-4.973L14.718,28.9
		c-1.169-1.17-1.555-2.269-1.117-3.029c0.737-1.271,3.343-2.164,6.482-2.164C20.615,23.708,21.158,23.694,21.696,23.742z
		 M24.1,24.124l0.268,0.065c0.115,0.028,0.229,0.059,0.343,0.088c2.946,0.789,7.983,2.995,8.617,8.889l0.022,0.206l-0.205-0.023
		c-5.896-0.633-8.1-5.669-8.89-8.616c-0.029-0.113-0.06-0.228-0.087-0.341L24.1,24.124z"/>
</g>
</svg>
